<?xml version="1.0" encoding="UTF-8"?>
<svg width="100px" height="100px" viewBox="0 0 100 100" version="1.1" xmlns="http://www.w3.org/2000/svg" xmlns:xlink="http://www.w3.org/1999/xlink">
    <!-- Generator: Sketch 51.1 (57501) - http://www.bohemiancoding.com/sketch -->
    <title>Group</title>
    <desc>Created with Sketch.</desc>
    <defs>
        <polygon id="path-1" points="0 0.0803837271 50.2644604 0.0803837271 50.2644604 56.2129851 0 56.2129851"></polygon>
    </defs>
    <g id="Page-1" stroke="none" stroke-width="1" fill="none" fill-rule="evenodd">
        <g id="Android-Copy" transform="translate(-131.000000, -164.000000)">
            <g id="Group" transform="translate(131.000000, 164.000000)">
                <g id="Group-8">
                    <circle id="Oval" fill="#FF5838" fill-rule="nonzero" cx="50" cy="50" r="50"></circle>
                    <g id="Group-12" transform="translate(24.731183, 17.204301)">
                        <g id="Group-3" transform="translate(0.000000, 9.360724)">
                            <mask id="mask-2" fill="white">
                                <use xlink:href="#path-1"></use>
                            </mask>
                            <g id="Clip-2"></g>
                            <path d="M45.2186615,42.9911631 C48.861897,38.1766037 50.4873985,32.4565815 50.2399904,26.8511557 C50.1562638,24.9414659 49.8507752,23.0453468 49.3363473,21.2027563 C49.0851677,20.3018169 48.7849591,19.4152022 48.4334585,18.5451738 C47.1851035,14.2199111 46.9226095,9.63831429 47.70104,5.17131392 L47.6904799,5.16302075 C47.6173134,4.17764194 47.2839159,3.213373 46.6985845,2.38858002 C46.3817814,1.94074909 45.9925662,1.534384 45.5332017,1.18607106 C45.073083,0.838512041 44.5752496,0.574638602 44.0585588,0.392188966 C43.1043781,0.0536770396 42.0860825,-0.00362119304 41.1168159,0.193153001 L41.1062558,0.186367683 C37.0179875,2.15109392 32.5359782,3.1447659 28.0320944,3.1229021 C27.0990339,3.02187627 26.1629562,2.97437905 25.2283871,2.97814867 C23.3139913,2.98568792 21.4056299,3.20734161 19.5440347,3.64612544 C14.0799358,4.93458175 9.01636655,8.05582758 5.37313112,12.870387 C5.31882202,12.9427637 5.26903868,13.0174022 5.21548387,13.0905328 C5.15966619,13.1629095 5.10007703,13.2300088 5.04576793,13.3023855 C1.4025325,18.1169449 -0.222969026,23.8369671 0.0244390948,29.4423929 C0.108919917,31.3520827 0.414408602,33.2482018 0.92808217,35.0907924 C1.17926176,35.9917317 1.48022468,36.8791003 1.83172524,37.7483749 C3.07932595,42.0736375 3.34181993,46.6552343 2.5633895,51.1222347 L2.5747039,51.1305279 C2.64787033,52.1166606 2.98051356,53.0801756 3.56584497,53.9057225 C3.88264805,54.3527995 4.27186326,54.7591646 4.73198203,55.1074776 C5.19210079,55.4550366 5.6899342,55.71891 6.20662494,55.9013596 C7.16080565,56.2398716 8.17910127,56.2971698 9.14836784,56.0996417 L9.15817365,56.1071809 C13.2471963,54.1424547 17.7299599,53.1487827 22.2323351,53.1706465 C23.1661499,53.2716723 24.1022276,53.3191696 25.0367967,53.3153999 C26.9511924,53.3086146 28.8595538,53.086207 30.7203948,52.6474232 C36.1844937,51.3589669 41.2488172,48.237721 44.8912983,43.4231617 C44.947116,43.3515389 44.9953908,43.2761465 45.0496999,43.2030158 C45.1055176,43.131393 45.1643524,43.0635399 45.2186615,42.9911631" id="Fill-1" fill="#FFCC10" mask="url(#mask-2)"></path>
                        </g>
                        <path d="M41.8530814,20.9160413 C42.1894961,20.5028909 42.7974563,20.4403152 43.2108089,20.7765653 C43.6241615,21.1135694 43.6867678,21.7204783 43.3495988,22.1343826 C43.0139384,22.5475331 42.4052239,22.6093548 41.9926256,22.2731047 C41.579273,21.9368545 41.5166667,21.3291917 41.8530814,20.9160413" id="Fill-4" fill="#101727"></path>
                        <path d="M43.7122629,26.0027673 C44.0486776,25.5896169 44.6566378,25.5270412 45.0707447,25.8632913 C45.4840973,26.2002954 45.5467036,26.8072043 45.2095346,27.2203547 C44.8731199,27.6335051 44.2651597,27.6960808 43.8525614,27.3598307 C43.4384545,27.0235805 43.3766025,26.4159177 43.7122629,26.0027673" id="Fill-6" fill="#101727"></path>
                        <path d="M40.2435709,25.8967655 C40.5799856,25.4836151 41.1879458,25.4210394 41.6012983,25.7572896 C42.0154052,26.0942937 42.0772573,26.7019565 41.7408426,27.1151069 C41.4044279,27.5282573 40.7964677,27.5900791 40.3831151,27.2538289 C39.9697625,26.9175788 39.9071562,26.309916 40.2435709,25.8967655" id="Fill-8" fill="#101727"></path>
                        <path d="M46.5615294,11.5618786 L44.6856026,8.79648498 C38.4687193,-0.365954765 25.9979923,-2.75664813 16.8310688,3.45719441 L18.7069957,6.22183414 C24.9231247,15.3842739 37.394606,17.7749672 46.5615294,11.5618786" id="Fill-10" fill="#008A81"></path>
                    </g>
                </g>
            </g>
        </g>
    </g>
</svg>