<svg xmlns="http://www.w3.org/2000/svg" width="1000" height="316.3" viewBox="0 0 1000 316.3">
  <title>Asset 1</title>
  <g id="Layer_2" data-name="Layer 2">
    <g id="Layer_1-2" data-name="Layer 1">
      <g>
        <path d="M981.62,230.51c-11.36,15.15-28.45,33-44.52,42.09-13.54,7.69-29,16-44.89,10.19a31,31,0,0,1-7.29-3.94c8.93-4.82,16.46-11.38,23.68-18.63,15.79-15.84,31.6-40.74,12.89-58.84-11.75-23.65-43.71-16.86-57.71,1.22-14.28,18.45-14.76,41.14-6.15,61.09a50.34,50.34,0,0,0,3.67,6.81c-17.28,8.27-36.68,11.29-56.23,9.41-3-2.64-5.63-4.75-8.07-6.86a263.53,263.53,0,0,0,21.86-16.92c13.44-11.91,29.18-29.53,23.89-49-4.7-17.29-35.11-28.42-50.18-21.56-18.16,8.27-29.06,33.39-29.4,52.21-.18,9.74,3.63,20.22,9.66,29-7.12,5.85-14.8,11.16-21.71,11.4-6,.2-6.63-1.26-10.59-5.83-5.73-6.61-9.46-14.46-8.49-22.81,1.83-15.84,10.36-29.74,20.87-41.09,5.47-5.91-11.11-13.18-14.94-12.89-9.1.72-21.09-3.59-30.31-4.58a72.61,72.61,0,0,1-8.2-1.41c-.32-5-1.88-9.72-5.73-13.54-3.08-3.06-8.74-5.38-13-3.68-12.32,5-8.5,14.8-1.3,21.35-1.41,6-2.68,12.39-2.93,13.37-2.28,9.24-4.68,18.85-7.4,28.38-3.38,11.88-9.34,21.39-17,30.5-3.22,3.82-6.49,9.92-10.57,12.8-3.35,2.37-7.79,3-12.13,3.47-3.4-5.13-4.75-14-5.12-19.29-.68-9.8,2.94-21.23,5.41-30.72,5.17-19.85,14.08-38.81,20-58.77,4.76-16.07,10.69-31.79,16-47.72.71,0,1.43.07,2.14.08,6.51.11-.65-.8,2.16-.6,3.47.23,9.73,1.82,12.84,2.39,8.86,1.6,16.41,1.11,25.69,1.08,17.63-.06,36.16,2.54,53.25-2.32,10.46-3-6-17.88-13.34-15.78-15.79,4.48-37.22,3-53.56,2.08-8.16-.47-16.23-1.41-24.31-2.28C674,99.62,679.33,88.2,684.28,78.5c2.35-4.6,4.45-9.22,6.66-14,3.85-8.2,9.78-14.52,14-22.41,3.71-6.92-14.12-17.88-17.66-11.29-4.58,8.53-10.61,15.77-14.9,24.5s-8.18,16.28-11.84,25.31c-3.58,8.87-8.07,17.16-11,26.45-.15.49-.36,1-.53,1.47-31.85-2.26-63.77-7.6-95.62-6-10,.5,5.82,16.16,13.33,15.79,16-.79,33.15,1.88,48.91,3.45,8.86.89,18,1.86,27.16,2.64-1.08,2.68-2.11,5.37-2.93,8.06-4.9,16-9.35,31.94-15.56,47.78a316.28,316.28,0,0,0-13.5,41.93c-5.69,24-11.51,58.76,15.85,72.62,26.44,13.4,48.16-19.14,57-39,5.92-13.31,8.32-27.7,11.61-41.34.89-3.66,2-7.68,2.87-11.78a136.78,136.78,0,0,0,19.74,3.58c2.59.31,5.2.75,7.84,1.23a33.25,33.25,0,0,0-4.68,8.15c-1.39,3.44-3,6.7-4.37,10.1-4.23,10.57-5.37,20.93-1.23,31.45,7.81,19.85,30.08,41.53,53,34.17,6.54-2.1,12.38-6.24,18-10.48,7.43,5.52,14.72,11.8,24,13.59,10.59,2.05,22,1.53,32.64.67,11.92-.95,20.4-6,30.36-10.84,14.62,12.21,35.11,18.49,53,14.21,29-6.93,55.46-33.58,72.79-56.69C1003.73,235.85,986.36,224.19,981.62,230.51Zm-198.26,25a3.34,3.34,0,0,0,.08-.85,46,46,0,0,1-1.69-6.33c-.46-5.82,1.44-13.52,3.11-19a52,52,0,0,1,10.9-19.29c8.07-8.6,11.61-13,24.54-9.48,3.42.92,3.42.92,3.65,6.3a26.56,26.56,0,0,1-5.62,18.41c-8.56,11.58-19.69,21.17-30.75,29.23-1,.72-2,1.55-3.11,2.43A17.22,17.22,0,0,0,783.36,255.53Zm99.33-43.25c4.42-5,13.43-11.44,20.64-11.9a2.22,2.22,0,0,1,1.89.82l.23.3c1.43,1.79,6.32,4.79,7,6.51,2,5.13-4.5,21.11-8,25.84-4.79,6.54-10.81,12.07-16.47,17.75a97.26,97.26,0,0,1-14.52,12C867.25,246.81,871.88,224.46,882.69,212.28Z" style="fill: #141414"/>
        <path d="M574,179.56c-21.93-5.6-36.54,18.7-48,32.35-1,1.23-2,2.49-3,3.74.59-2.62,1.21-5.22,2-7.78,3.15-10.88,6.56-21.14,10-31.91.89-2.79-2.17-6.26-6-8.44-4.79-3.63-11.31-5.41-12.69-1.68-2.6,7.08-16.64,18.15-22.3,23.15a77.7,77.7,0,0,1-16.65,11.42c-1.26.61-2.52,1.23-3.78,1.82-.1-4.6-.23-8.69-3.16-13.64a69,69,0,0,0-7.74-7.77,24.41,24.41,0,0,0-2.48-2.08,33.2,33.2,0,0,0-7.49-4.09c-5.67-2.45-13.23-5.53-19.48-5.46a36.19,36.19,0,0,0-10.75,1.73,33.46,33.46,0,0,0-2.18-5.82c-3.72-7.73-8.2-17.2-13.91-23.51-4.92-5.44-11.48-12.35-17.19-16.88-6.8-5.4-14.08-4-21.5-7.19-.79-.35-4.08-1.2-3.91.72.36,4.2,2,6.88,2.95,10.86,1.06,4.63-.61,9.93.13,14.71,1.52,9.74,7.42,17.74,14.2,24.38,6.14,6,10,10,18.55,12.1,1.8.45,3.66.78,5.52,1.06-3.64,3-7.28,6.32-11.29,9.48a4,4,0,0,0-1.56,1.41c-4.54,7.43-9.21,11.36-12.23,19.78-2.79,7.74-3.37,14.48-3.76,22.43-.73,15.08,1.52,30,12.69,41.39,26.07,26.5,60.26,2.16,75.1-22.68,5.85-9.78,9.41-19.86,10.24-30.64,10.83-3.55,22.53-10.12,30.73-16a1.92,1.92,0,0,1,.22-.18c-2,8.28-3.44,16.53-6.3,24.55-3.46,9.72-3.54,19.58-6.66,29.34-1.34,4.21-6.35,15.14-4.85,19.67s8.75,10.54,13.85,8.86c7.23-2.38,10.78-18,13.75-24.16,5-10.36,11.33-19.27,17.13-28.84,5.42-8.94,12.94-15.94,19-24.41,3.36-4.74,15.31-18.65,24.13-19.18,1.1,6,1.72,11.58.7,18.36-.78,5.13-2.9,10-3.72,15.15-1,6.2-.35,11.9-2.28,18.1-5.38,17.2-9.8,33.76,2.33,49,4.6,5.77,20.55,7.56,12.8-2.16-8.24-10.35-1.79-25.19.92-36.57,2.58-10.85,4.87-22.49,7-33.91C596.34,202.79,593.24,184.47,574,179.56Zm-122.95,8.5a13.55,13.55,0,0,0,2.3,1.58c1.17,5.57.79,12.9,1.18,17.72.05.61.05,1.17.08,1.76a41.29,41.29,0,0,1-8.93.79c-8.81-.24-12.73.34-14.29-9.56-1.12-7.12,1.83-12.17,8.17-15.22a20.44,20.44,0,0,1,4.77-.11C446.47,185.23,448.8,187.24,451.05,188.06Zm-1.84,45.71c-6.13,14.81-18.86,30.94-34.62,36.4C396.38,276.46,394.72,255.68,396,242c.61-6.68,1.16-12.17,3.6-18.64,3.07-8.17,6.72-11.72,11.19-19q1.71-1.39,3.43-3a35.11,35.11,0,0,0,5.22,9.28c7.77,9.85,20.43,14,32.92,14.62C451.48,228.09,450.43,230.83,449.21,233.77Z" style="fill: #141414"/>
        <path d="M388.2,300.11c-4.44-.37-6.84.75-8.17.57-2.68-.37-9.82-3.29-11.74-4.44-6.76-4-12.32-14.12-14.31-21.63-2.67-10.06.14-25.28,1.92-35.09,2.65-14.65,3.16-30.18,10.45-43.58,3.09-5.67-7.5-11.39-11.78-11.77-20.73-1.85-34.21,16-45.15,31.91,1.48-8.43,2.9-16.94,4.1-25.43.83-5.92-9.12-11.1-14-10.39-21.39,3.07-37.36,24.12-50.3,39.61a53.65,53.65,0,0,0-4.52,6.43c2-5.75,3.14-12.2,5.46-17.84,1.76-4.31,5.29-7.76,7-12a47.65,47.65,0,0,0,2.25-7.26A46.75,46.75,0,0,0,261.8,182c1.7-6.91-16.55-16.82-18.61-8.4-2.54,10.39-7.4,12.47-13.48,20.27-4.72,6.05-8.8,12.41-14.14,18.18-9.07,9.8-19.26,22.76-29.88,30.47-10.14,7.37-18.67,16.79-30.16,23.09-7.67,4.2-19.54,10.77-29.42,11.24-3.39-2.66-5.7-5.22-6.56-10.39a32.29,32.29,0,0,1-.06-8.43c18.26-5.62,38.53-15,54.08-26.15,11.94-8.55,24.09-24.33,19.71-39.77-3.55-12.52-20.57-21.28-33.23-20.54-13,.77-27.64,12.71-35.67,22.88-16.08,20.34-36.77,62.66-14.56,84.75s51.58,8.63,72.91-7.55c13.6-10.31,25.64-21.9,37.6-34a110.73,110.73,0,0,0-4.44,12.48c-2.54,9.24-3,18.56-5.09,27.74-1.31,5.66,12.89,14.51,16.49,9,11.87-18.34,23.72-38.06,37.47-55,7.68-9.44,17.4-22.83,29-31.14-1.63,9.42-3.46,18.81-5.53,27.83-1.93,8.41-5.85,16.19-8.16,24.35s-2.66,16.63-4,25.18c-.95,6.33,14.5,15.28,16.93,7.63,3.32-10.49,10.17-18.62,15.1-28.1,4-7.62,6.45-15,11.66-22.45,5.82-8.28,11.26-16.88,17.87-24.65a37.67,37.67,0,0,1,5.08-4.73c-2.65,10.19-4.23,20.9-5.64,30.48-2.23,15.11-1.93,30.3,4.64,44.13,6,12.52,14.72,22.47,27.69,28.12,5.91,2.58,5.92,2.77,10.68,4.06,5.92,1.6,9.92.33,15.56.8C406.44,314.29,394.58,300.65,388.2,300.11ZM129.69,225.05c6.76-13.85,27.25-42.23,45.4-36.77,1,11.46-7.24,21.75-15.91,28.8-9.2,7.49-22,14.54-34.49,20A121.51,121.51,0,0,1,129.69,225.05Z" style="fill: #141414"/>
        <path d="M102.85,302.89a62.48,62.48,0,0,1-16.34-9.45,39.51,39.51,0,0,0-5.19-2.77c-.21-.66-3.68-4.44-4.31-5.27-6.31-8.25-12.57-24.86-15-37.79-.14-.76-.25-1.53-.37-2.3,1.82-2.64,3.64-5.25,5.47-7.77,14.85-20.44,29.13-41.49,40.6-64,23.46-46,41.5-96.37,48.18-147.68C158.41,6.6,139.84-7.62,122.75,4.47,113.16,11.26,106,25.93,100.61,36c-4,7.44-7.92,14-11.72,21.62C67.14,101.27,49.23,148.41,42.42,196.8A147.41,147.41,0,0,0,42,236.67c-4.83,6.75-9.76,13.49-15,19.86C18.64,266.64,7.73,276.38.6,287.6c-4,6.23,12.91,17.11,17,10.89,7-10.65,18.43-20.12,26.69-29.68,1.57-1.82,3.08-3.77,4.58-5.71a86.8,86.8,0,0,0,4.37,9.13c13.06,23.6,25,33.89,48.49,42.92C115.08,320.27,112.52,306.89,102.85,302.89ZM100.64,80.83c5.6-9.42,9.33-19.67,15-28.52S127.38,27,137.17,19c-.85,8-3.29,16.28-5.09,23.43-3.78,15-7.78,29.77-11.7,44.7-6.29,24-16.5,46.9-27.83,68.78a558.9,558.9,0,0,1-31.48,53.5,254,254,0,0,1,7.21-37.92C76.15,141.5,84.84,107.42,100.64,80.83Z" style="fill: #141414"/>
      </g>
    </g>
  </g>
</svg>
