<svg id="phone" xmlns="http://www.w3.org/2000/svg" viewBox="0 0 474.97 626.08"><defs><style>.cls-1{fill:#1c1c1c;}.cls-2{fill:#ff5838;}</style></defs><path class="cls-1" d="M852.76,915.77c.16-.24-.58-.41-.7-.5C852.05,915.76,852.94,915.83,852.76,915.77Z" transform="translate(-377.81 -308.52)"/><path class="cls-1" d="M852.5,920.7l-.25-.22c.13.32.24.63.36.95Z" transform="translate(-377.81 -308.52)"/><path class="cls-1" d="M850.33,924.41c1.3.37.66-1.43,1.43-1.84l.32,0-.74-.81c-.14.45-.23,1-.37,1.5A1.73,1.73,0,0,1,850.33,924.41Z" transform="translate(-377.81 -308.52)"/><path class="cls-1" d="M846.83,924.41c.47.23.07.59.42-.24l-.16,0A.88.88,0,0,1,846.83,924.41Z" transform="translate(-377.81 -308.52)"/><path class="cls-1" d="M847.09,924.15c.22-.31-.49-.07,0,0Z" transform="translate(-377.81 -308.52)"/><path class="cls-1" d="M846.16,925.65V925c-.28-.12-.63.11-.67-.14C845.35,925.35,845.61,925.51,846.16,925.65Z" transform="translate(-377.81 -308.52)"/><path class="cls-1" d="M846.5,926.65l0-.33C846.43,926.27,846.35,926.28,846.5,926.65Z" transform="translate(-377.81 -308.52)"/><path class="cls-1" d="M846.65,925.66l-.1.66c.2.1.51.38.07-.28C846.87,926.34,846.68,926,846.65,925.66Z" transform="translate(-377.81 -308.52)"/><path class="cls-1" d="M847,925.55c.39,0,.78-.22.77.49C848.32,925.12,847.5,924.68,847,925.55Z" transform="translate(-377.81 -308.52)"/><path class="cls-1" d="M851.3,925.34c.19-.06.39-.1.58-.17l-.15-.58C851.81,924.89,851,925.14,851.3,925.34Z" transform="translate(-377.81 -308.52)"/><path class="cls-1" d="M843.6,927c.12.24.52.52.74.79l.1-.45C844.19,927.24,843.83,927.28,843.6,927Z" transform="translate(-377.81 -308.52)"/><path class="cls-1" d="M844.34,927.74a4.83,4.83,0,0,1-.17.68C844.6,928.23,844.54,928,844.34,927.74Z" transform="translate(-377.81 -308.52)"/><path class="cls-1" d="M847.43,927.74c0-.47,0-.94,0-1.39,0,.5-.06,1-.11,1.54Z" transform="translate(-377.81 -308.52)"/><path class="cls-1" d="M842.11,927.71l0-.68c0,.34,0,.7,0,1.06Z" transform="translate(-377.81 -308.52)"/><path class="cls-1" d="M841.15,928.17c0-.54-.46-.81-.38-1.16-.21.13-.31.66-.47,1.08C840.5,927.85,840.71,927.81,841.15,928.17Z" transform="translate(-377.81 -308.52)"/><path class="cls-1" d="M840,928.73a2.27,2.27,0,0,0,.28-.64A2,2,0,0,0,840,928.73Z" transform="translate(-377.81 -308.52)"/><path class="cls-1" d="M843.35,928.74c-.11-.13-.37-.49-.68-.55l.5.62Z" transform="translate(-377.81 -308.52)"/><path class="cls-1" d="M843.19,928.83l0,0-.4.13Z" transform="translate(-377.81 -308.52)"/><path class="cls-1" d="M843.4,928.72l0,0C843.41,928.8,843.43,928.81,843.4,928.72Z" transform="translate(-377.81 -308.52)"/><path class="cls-1" d="M845.8,928.25c0,.54-.35,1.34.64,1.46C846.33,929.13,845.79,929.08,845.8,928.25Z" transform="translate(-377.81 -308.52)"/><path class="cls-1" d="M844.08,929.44l.6-.14c-.12-.17-.36-.37-.34-.63Z" transform="translate(-377.81 -308.52)"/><polygon class="cls-1" points="466.13 621.28 466.27 620.91 466.05 620.97 466.13 621.28"/><path class="cls-1" d="M841,929.29c-.14.4-.39.45-.66.55a1.56,1.56,0,0,0,1,0C841.25,929.65,841.26,929.19,841,929.29Z" transform="translate(-377.81 -308.52)"/><path class="cls-1" d="M842.07,929.2s0,0,0,.06S842.12,929.32,842.07,929.2Z" transform="translate(-377.81 -308.52)"/><path class="cls-1" d="M837.45,929.87l0,.15,0-.13Z" transform="translate(-377.81 -308.52)"/><path class="cls-1" d="M841.35,930c.26.08.36-.12.41-.39a1.26,1.26,0,0,1-.5.26C841.27,930,841.28,930.07,841.35,930Z" transform="translate(-377.81 -308.52)"/><path class="cls-1" d="M839.34,929.15a1.94,1.94,0,0,0,.41.4C839.61,929.32,839.37,929,839.34,929.15Z" transform="translate(-377.81 -308.52)"/><path class="cls-1" d="M841.9,929.08s0,0,0-.05S841.83,929,841.9,929.08Z" transform="translate(-377.81 -308.52)"/><path class="cls-1" d="M841.9,929.08a2.44,2.44,0,0,0-.14.55,1.22,1.22,0,0,0,.27-.37Z" transform="translate(-377.81 -308.52)"/><path class="cls-1" d="M835.59,934.61a1.34,1.34,0,0,1,.78-.75.92.92,0,0,1,1,.37c.78-.47.38-2.87.08-4.21a1.42,1.42,0,0,1-.14.46,1.14,1.14,0,0,1-.44.49,1.8,1.8,0,0,0,.46.75c.23.28.38.59.07.89-.92.28-.64-.34-.9-.75,0,.45-.26.75-.66,1a2.42,2.42,0,0,0-1.06,1.27l1-.25C835.8,934.13,835.38,934.37,835.59,934.61Z" transform="translate(-377.81 -308.52)"/><path class="cls-1" d="M838.54,930.16l.23-.09c-.26-.14-.44-.4-.72-1a1.38,1.38,0,0,0-.54.82c.36.05.74.14,1.11.16Z" transform="translate(-377.81 -308.52)"/><path class="cls-1" d="M839.76,930c-.09.78-.68,1.16-.27,2,.77-.11.49-.67.86-1.07-1.09.32.26-.45-.57-.82a2.21,2.21,0,0,1,.53-.27,1.76,1.76,0,0,1-.56-.29l0,.05h0c.05.09.07.15,0,.1l0,0a.93.93,0,0,1,0,.29c-.31-.14-.06-.2,0-.29v-.12h0a9.39,9.39,0,0,1-1,.47C839,930.19,839.28,930.15,839.76,930Z" transform="translate(-377.81 -308.52)"/><path class="cls-1" d="M846.82,931.49a.29.29,0,0,1-.14-.12C846.66,931.5,846.66,931.58,846.82,931.49Z" transform="translate(-377.81 -308.52)"/><path class="cls-1" d="M846.08,931.42c0-.14-.07-.45.24-.57.36,0,.21.31.36.52.06-.29.24-.86-.47-.82l0,.14a2.22,2.22,0,0,1-1.63-.58A5.42,5.42,0,0,0,846.08,931.42Z" transform="translate(-377.81 -308.52)"/><path class="cls-1" d="M842.67,931.36a8.11,8.11,0,0,1-.89.65c.22.18.46.35.71.53l-.14-.39C843,932.11,842.7,931.68,842.67,931.36Z" transform="translate(-377.81 -308.52)"/><path class="cls-1" d="M837.42,929.48a7.84,7.84,0,0,1,.18-.81c-.17.38-.25.75-.44,1.12Z" transform="translate(-377.81 -308.52)"/><path class="cls-1" d="M836.84,929.48l.27-.68-.27.39A2.8,2.8,0,0,0,836.84,929.48Z" transform="translate(-377.81 -308.52)"/><path class="cls-1" d="M807.82,894.63l-.07-.36A1,1,0,0,0,807.82,894.63Z" transform="translate(-377.81 -308.52)"/><path class="cls-1" d="M806.84,896.71a1.49,1.49,0,0,1,.28.23C807,896.72,806.89,896.64,806.84,896.71Z" transform="translate(-377.81 -308.52)"/><path class="cls-1" d="M839.59,900.72c.09-1.1.06-2.56-.4-1.88l-.35.76A1.57,1.57,0,0,1,839.59,900.72Z" transform="translate(-377.81 -308.52)"/><path class="cls-1" d="M813.39,910.69l.05.22c.23-.3.45-.61.66-.94A9.6,9.6,0,0,1,813.39,910.69Z" transform="translate(-377.81 -308.52)"/><path class="cls-1" d="M811.53,914.16l-.62-.47A1.24,1.24,0,0,0,811.53,914.16Z" transform="translate(-377.81 -308.52)"/><path class="cls-1" d="M808.16,885.44a6,6,0,0,0-.7.4C807.52,885.89,807.83,885.66,808.16,885.44Z" transform="translate(-377.81 -308.52)"/><path class="cls-1" d="M835,926.33a1.53,1.53,0,0,0,.67-.14C835.2,926.12,834.41,926.07,835,926.33Z" transform="translate(-377.81 -308.52)"/><path class="cls-1" d="M815.09,898.81c0-.28-.14-.43-.3-.49C814.81,898.59,814.89,898.78,815.09,898.81Z" transform="translate(-377.81 -308.52)"/><path class="cls-1" d="M836.17,925.42l-.29.13-.07.29,0,.14,0,.07s0,.1,0,0a.17.17,0,0,1-.08.16c.18,0,.36,0,.37,0A.89.89,0,0,0,836.17,925.42Z" transform="translate(-377.81 -308.52)"/><path class="cls-1" d="M772.15,873.52s.05-.1.08-.14S772.13,873.44,772.15,873.52Z" transform="translate(-377.81 -308.52)"/><path class="cls-1" d="M779.29,857.89a3.36,3.36,0,0,1,.08.63A.9.9,0,0,0,779.29,857.89Z" transform="translate(-377.81 -308.52)"/><path class="cls-1" d="M835.21,928.51c.15,0,.12,0,0,0Z" transform="translate(-377.81 -308.52)"/><path class="cls-1" d="M832.58,931a1.74,1.74,0,0,0-.47.24A2.59,2.59,0,0,1,832.58,931Z" transform="translate(-377.81 -308.52)"/><path class="cls-1" d="M833.64,920l0,0C833.48,919.94,833.51,919.94,833.64,920Z" transform="translate(-377.81 -308.52)"/><path class="cls-1" d="M834.94,928.81a1.05,1.05,0,0,0,.15-.21A.49.49,0,0,0,834.94,928.81Z" transform="translate(-377.81 -308.52)"/><path class="cls-1" d="M835.34,928.56a.27.27,0,0,0,0,.09C835.49,928.56,835.58,928.5,835.34,928.56Z" transform="translate(-377.81 -308.52)"/><path class="cls-1" d="M835,928.47c.07,0,.07.07.05.13a.29.29,0,0,1,.12-.09Z" transform="translate(-377.81 -308.52)"/><path class="cls-1" d="M793.88,892.07l-.1,0C793.53,892.51,793.68,892.39,793.88,892.07Z" transform="translate(-377.81 -308.52)"/><path class="cls-1" d="M829.25,905.64a.11.11,0,0,1,0,0l0,0Z" transform="translate(-377.81 -308.52)"/><path class="cls-1" d="M828.94,906.56c-.12-1.16.09-1.17.29-1-.19-.84-.43-1.68-.69-2.47A19.88,19.88,0,0,0,828.94,906.56Z" transform="translate(-377.81 -308.52)"/><path class="cls-1" d="M809.08,889.59l-.81.51c-1-1-.57-1.33-1.61-1,1.22.22,1.19.82,1.09,1.45s-.21,1.28,1,1.69l-.64.29c.06-.12-.07-.18,0-.3-1.4.48,1.48,1.21.7,2.28-.33.34-.78.48-.94.1.07.37.13.75.18,1.13a.21.21,0,0,1-.36-.23c-.14.49-.28.92-.47,1.46l0,0c.14.57.36,1.44.44,1.84-.65.42-.11-.34-.49-.31,0,.46-.05.9-.06,1.31-.46.17-.73,0-.79-.34a2,2,0,0,1,.38-1.29c-1.5.22-1.59.61-1.55,1.12a1.65,1.65,0,0,1-.17.94,4.55,4.55,0,0,1-1.53,1.51c.21-.42.39-.86.56-1.3a5.14,5.14,0,0,0-1.39.68,9.31,9.31,0,0,0-1.1.89c-.65.59-1.15,1.24-2.17,2.1a19.83,19.83,0,0,1,3.67-2.13c.43-.15.75-.18.87,0a.31.31,0,0,1,.06.31,1.41,1.41,0,0,0-.7,1.58,1.43,1.43,0,0,0-1.09.6,3.25,3.25,0,0,0-.37,1.06l-1.55.33c.18.81,1,.49,1.56.71-.4.88-1.48,1.36-2.41,1.92-.13.61.29.23.78-.11s1.1-.69,1.08-.13a1.23,1.23,0,0,0-.23,1.25A3.72,3.72,0,0,0,802,910.8c.12,1-.69.24-.8.7a9.9,9.9,0,0,0,1.25.18c.1.17-.17.28-.31.34.37.16.63,0,.91-.15a1.31,1.31,0,0,1,1.1,0c.62-.33.65.22.87.8s.62,1.2,1.75.75c.06.34-.67.56-.91,1a12.76,12.76,0,0,0,2.18-.43,11.09,11.09,0,0,0,2-1,9.67,9.67,0,0,0,.8.73c-.46-.84,1.31-1.92,2.48-3-.09-.39-.06-.88-.1-1.07.52-.33,1-.69,1.43-1a2.88,2.88,0,0,1-.62,1.37,3.82,3.82,0,0,0,.34-.4c.25.45-.15,1.23-.76,2a4.38,4.38,0,0,1-.24-.66,10.89,10.89,0,0,0-1.59,2.37,2.77,2.77,0,0,1,.68-.4,1.2,1.2,0,0,0-.33.52c0,.12.29-.17.67-.52,0,.44-.07.88-.09,1.33l.28-.57a14.94,14.94,0,0,0,2.18.38,12.1,12.1,0,0,0,1.37-1.49c.41-.51.8-1,1.16-1.58a16.69,16.69,0,0,1,2.13-2.73c-.1,1.13.47,1.49.9,2.53-.56-.36-.94,0-1.45.46a3.9,3.9,0,0,1-1.82,1.27c.72-.14.63.46.45.73a23.45,23.45,0,0,0,2.27-2.13c.24.9.73.38,1.56.37-.66-.68-.28-1.2.14-1.63s1-.73,1.15-1.2c.37.47.57,1.13-.39,1.53.85.29.88-.37.86-1s-.06-1.32.7-1.17c-.18.16-.34.16-.24.47.14-.77,1.5-1.26,1.57-.66l-.19.17a9.82,9.82,0,0,0,1.22-.91c.11-.09.21-.2.31-.3a2.21,2.21,0,0,0,.24-.27,2.85,2.85,0,0,0,.26-.41,3.35,3.35,0,0,0,.25-2.19c.07.21.61,1.93.73,2.29a11.59,11.59,0,0,1-.18-3.26,10.17,10.17,0,0,1,.8-3.31,5.49,5.49,0,0,0,.08,1.29c.08.45.18,1.17.23,1.77a8.73,8.73,0,0,1-.09,3c.2.14.35.34.7-.3-.07-.22-.36-2.22-.12-2.44.33.82.38,1.08.49,1.26a3.67,3.67,0,0,1,.36,1.16,4.6,4.6,0,0,1,.29-1.58c.21-.68.55-1.25.78-1.18-.17.37-.67,2.51-.85,2.75a9.71,9.71,0,0,1,1.72-2.2c-.43.32-.86,2-1.07,2.75.17-.5.5.29.74.22a4.08,4.08,0,0,0,.09-.69c.24.41.92-.17,1.74-.62a3.38,3.38,0,0,1,1.19-.5c.36-.05.7,0,.8.42-.49.1-2.56,1.69-2.65,2.26a9.81,9.81,0,0,1,3.2-1,4.32,4.32,0,0,1,1.73.21,2.13,2.13,0,0,1,1.12.93l-.58.49c.2.41.41.86.61,1.34a12.14,12.14,0,0,0-3.12-1.33,7.57,7.57,0,0,0-3.1,0c-.41.55-.69.46-.6.81-.57.34-.88.2-.92.16a3.33,3.33,0,0,1-.36.68c1.25-.37,1.22.32,2.23.3a2.9,2.9,0,0,0-1.22-.81,3.71,3.71,0,0,1,2.19-.2,1.18,1.18,0,0,1,1,1.41,2.4,2.4,0,0,1-1.31-.06,7.19,7.19,0,0,0-1.24-.19.77.77,0,0,1,.47.45c.07.27,0,.61-.12.64l-.55-.65c-.57.62,1.4,1.46.07,2.1-.13.3-1.73.49-1.05.72,1.47-.1,5.68.74,6.59,1.39-.06,0-.51.44-1,.83a5.31,5.31,0,0,1-1.54.82c-1.2.18-2.22-1.58-3.25-1.42a1.81,1.81,0,0,1,.7.67c-.38.23-.92-.45-1,.27,1.12.52-.61,1.33.86.67.08.8-.5.63-.78,1.41.84,0,2.19,1.81,2.13,2.69a1.9,1.9,0,0,0-.91-.21c-.8,1.36-1.71,1.79-2.48,3-.28-.08-1.13.5-1.38-.07,0,.33.28.71,0,1.16-1.68.5.59-1.11-1.11-.95.59.38.06,1.68,0,2.37a1,1,0,0,0,1.14-.72,8.05,8.05,0,0,0,.16-1.46,4.63,4.63,0,0,1,1.62,1.58,4.77,4.77,0,0,1,.78,1.64l0,.08c-.14.56-1.35.14-1.19.27-.75.71-.15,1,.46,1.07s1.15.11,0,.67a16.53,16.53,0,0,1-2.35.69,18,18,0,0,0-1.84.39c0-.28.53-.62,1-.89a4.64,4.64,0,0,0,1.15-.74l-1.12.65c-.27-.13-.16-.62.43-.92a3.48,3.48,0,0,0-1.35,1.08l-.7.78-.37.42c-.13.1.08.09.13.15l.23.15a8.29,8.29,0,0,1,1.52,1.2,6.17,6.17,0,0,0,.73.12.47.47,0,0,0,.31,0,.58.58,0,0,0,.29-.2l-.64-.18a1.94,1.94,0,0,1,1.3-.43c.46,0,.79-.07.78-.31.59,0,1.25-.15,1.74-.18s.84,0,.94.28c-.29.31-.56.62-.83.93.24-.27.13-.7-.4-.54.39-.12.29.27.38.61s.34.57,1,0a4.38,4.38,0,0,1,.1-.82,8.46,8.46,0,0,0,1.4-.64c.42-.21.69-.36.8-.14.17-.53.15-.51.11-.51s-.08,0,.18-.63c-.35.75-.55.67-.75.59s-.4-.15-.86.62c.42-.68.47-.83.48-1s0-.28.55-.78c-.38.26-.65.54-.67.31l-.41.19v0l0,0h0a3.45,3.45,0,0,1-.47.46c-1,.51-1.66.17-2.45.28,0-.23.65-.18,1-.47-.38.07-.78.13-1.19.18.55-.22.9-.48,1.28-.65a3.13,3.13,0,0,1,1.27-.31l-.17-.14-.05,0,.19-.1.23-.1.34-.16c.15-.08.14-.13-.06-.14.32-.1-1-.12-.21-.12a.94.94,0,0,1-.3-.38h.25a.33.33,0,0,0,.1-.32,1.16,1.16,0,0,1,0-.71.57.57,0,0,1,.32-.31.83.83,0,0,1,.29-.06c-.05.1,0,0,0,0l.07,0,.14-.08.32-.14a3.57,3.57,0,0,1,.89-1.95l.71.17c.16-.75,1.67-1.71,1.16-2.32,1,0,1.51-.81,1.81-1.78a16.63,16.63,0,0,1,.73-2.71l-.86-.32a6.51,6.51,0,0,0,.2-3l-.81-.1c-.22-.54,0-1.1.36-1.75.09-.16.17-.33.26-.5l.12-.26c0-.1.08-.23.12-.35a7.8,7.8,0,0,0,.29-1.53c.29.13.16.68-.07,1a2.9,2.9,0,0,0,.74-2,4.38,4.38,0,0,0-.41-1.92c-.24-.56-.48-1.11-.7-1.64a3.63,3.63,0,0,1-.19-.82,2.58,2.58,0,0,1,0-.92,1.4,1.4,0,0,1-.56-1.16.28.28,0,0,0,.1.09,1.24,1.24,0,0,0-.1-.2,3.51,3.51,0,0,0-.08-.91,6.69,6.69,0,0,0,0,.81,3.72,3.72,0,0,0-1.18-1.1l.41-.83a1.25,1.25,0,0,0-.12-.08c-.23-.7-.6,0-.82.68a1.76,1.76,0,0,0-.87-.12c.25-.7-.12-.88-.51-1s-.77-.28-.72-1.08c-.36.24-1.07,0-1.85,0a1.79,1.79,0,0,0-1.81,1c0-.2-.1-.32.18-.28-.54-.23-1.14-.47-1.7,0,0-.36-.12-.72-.19-1.09a10.67,10.67,0,0,0-1.28,1.72c-.75-.47-1.22-.71-.49-1.85l-1,1c-.21.26-.37.4-.51.55a3.46,3.46,0,0,0-.94,1.68L826,900a3.07,3.07,0,0,0-.61,1.07c-.18.39-.35.68-.65.54a1.1,1.1,0,0,0-.31,0,2.44,2.44,0,0,0-.76.31,4.49,4.49,0,0,0-.42.24l-.31.2c-.44.27-.89.64-1.4,1a9.57,9.57,0,0,1-1.63,1,5.87,5.87,0,0,1-.89.31.93.93,0,0,1-.65,0c.56.89.3.77,0,.59s-.56-.45-.39.38a1.9,1.9,0,0,1-.33-1.2c-.19.37-.43.25-.58.22s-.27,0-.58.91c0-.57.22-.89.21-1.22,0,.14-.22.56-.21.22a2.55,2.55,0,0,1,.24-.78,17.12,17.12,0,0,0-1.54,3.89c-.2-.72-.34-.58-1.25.7a1.71,1.71,0,0,1,.78-1.47,2.69,2.69,0,0,0-.77-.16c-.35,0-.81.21-1.4,1,.19-.39-.34-.11-.57.06a4.11,4.11,0,0,0-1.35-.28l-.08.29c-1.08.87-1.38.91-1.47.76s0-.55-.37-.6l.24-.17c.23-1,.07-1-.2-1-.11,0-.22,0-.19-.19a2.49,2.49,0,0,1,.81-1.05l-1.52.83c-1.6.77-1,.13-.06-.53s2.12-1.34,1.8-1.44l-.94.52c-.35,0,.85-.65,2.07-1.2s2.52-1,2.73-1.17a.78.78,0,0,1,.45,0c.89-.4.49-.29-.1-.17s-1.44.34-1.44.11a12.64,12.64,0,0,0,2.21-.49c.28-.08,0-.11-.35-.26s-.78-.72,0-.79c-.51,0-1.07,0-1.27-.37,0-.12.17-.23.37-.31l.31-.11c.07,0,.23-.12.36-.21.52-.42.87-.94.35-1.61a.52.52,0,0,1,.41,0c-.07-.8.27-2.36-.38-3,1.52.19,1.55-1,1.42-2.09s-.37-2.07,1-1.83c.09-.75.14-1.53.16-2.33l.27.09a2.24,2.24,0,0,0-1.12-2.62c.15-.37.43-.13.58-.11a4,4,0,0,0-.17-2.5,4.35,4.35,0,0,0-1.92-1.65c.24-.2.46-.4.68-.61-.37-.13-.5-1.12-1.17-2.24a5.36,5.36,0,0,0-1.36-1.57,3.87,3.87,0,0,0-2.29-.82.59.59,0,0,1,.47-.26c-1-.08-1.91-.29-2.88-.43a13.35,13.35,0,0,0-2.75-.18c-1.67.09-2.79.63-2.44,2.27-.3.47-.76,1-1.06,1.56,1-.53,1.12-.12,1.12.32s-.05,1,.42,1c-.47.5-2.05.38-1.5-.33l.22,0c-.39-.78-1-.5-1.48-.17s-1,.75-1.36.31a27.54,27.54,0,0,1-7.51,5c.29.34.58.68.88,1a4.84,4.84,0,0,1-.83.34c-.33-.19-.66-.84-.14-1-.3-.28-.43,0-.5.3a2.8,2.8,0,0,0,0,.92c-.63-.08-.6-.49-.53-.86s.22-.67.08-.65l-.32.21.12.12c-.14.64-.05,1.16-.7,1.23-.41-.23-.27-.8-.41-.84s-.05-.14-.19,0a2.24,2.24,0,0,1-.64-.14,6.42,6.42,0,0,0,.14,1.06c-.42.49-.81-.15-.6,1.07a1.85,1.85,0,0,0-.58-1,2.33,2.33,0,0,1-.39-.38,2.7,2.7,0,0,0-.45-.36,10.16,10.16,0,0,1-1.17-.89c-.31-.28-.54-.5-.52-.69a2.21,2.21,0,0,1-2-1.39c0,.31-.89,1.14-1.28.35,1.1-.57,1.07-1,1-1.51a1.67,1.67,0,0,1,.32-1.73c-.81,1.06-1.17-1.9-2.31-.43-.1-.71.81-.39,1.14-1.07a3,3,0,0,1-.88-2.46,10.18,10.18,0,0,0-.28-3c-.32,0-.74.46-1.28.09.46-.46.93-.91,1.4-1.34-.22-.38-1.89-.13-.87-1-.26.14-.64.36-.77.08,1-4.3-1.77-8.67,1-13.36-.59.64-.67.23-.71-.25-.13.31-.78,0-1.21.09l1.12-2c-1.2-.3-.15-2.07-1.3-2.2l.23.59c-1.38-.72-3,1.29-4.69,1.25,1.56.82-2.19,2.38.05,3.74-.34.32-.56-.26-1-.08.76.34.92.79.6,1.62l-.18-.09c.22,2.33-.5,3.35-.86,6.07l.84-.24a1.78,1.78,0,0,1-.54,1c1.33.59,0-1.63,1.45-1.1-1.72.86.21,4-1.67,4.79.1.92,1-.38,1,.54l-.5.3.71.15a1.4,1.4,0,0,1-1.11,1.09c0-.16-.19-.41-.25-.56-.52.88.56,2.22.4,2.51l.18-.95c.21.61.39,1.28.56,2s.31,1.4.53,2.1a10.15,10.15,0,0,0,.77,2.05,5.84,5.84,0,0,0,1.22,1.73l.3-.34a2.12,2.12,0,0,1,.82,1.59,3.06,3.06,0,0,0,.79,1.8l-.12,0a2.56,2.56,0,0,1,1.38,1c-.72-.19-.12,1.41-1,1.12,1,.69,1.34.74,1.63.73a8.24,8.24,0,0,1,1.63-.18l-.26.71c.75-.08,1-.31,1.91.24-1-.13-.14,1.24-1.4,1.15a2.27,2.27,0,0,0,.94,1.34,2.73,2.73,0,0,0,.62.26c.22.08.49.17.71.23a2.93,2.93,0,0,1,1.11.48,1.55,1.55,0,0,1,.73,1c.94-.71.38-1.12-.21-1.35l-.23-.08-.2-.14-.34-.23c-.18-.13-.25-.2-.06-.19-.1-.44.3-.58.73-.59a1.22,1.22,0,0,1,.33,0l.37,0a1.29,1.29,0,0,1,.62.13c.36.12.51.78.94,1.41a2.46,2.46,0,0,0,2.33,1.21c-.23,0-.24.15-.47.15a1.42,1.42,0,0,0,1.29-.15,1.55,1.55,0,0,1,1.44-.1c.23-1.24,1.28-.34.93-1.74a11.2,11.2,0,0,1-1.7.84c.51-.26.84-.95,1.24-1.45a1.93,1.93,0,0,1,1.69-1,2.11,2.11,0,0,1-.44,1.19.67.67,0,0,0,.68-.23.66.66,0,0,1,.66-.28c.28.65-.12,1-.76,1.33-.32.16-.65.34-1,.53a2.35,2.35,0,0,0-.87.79c.38.2.88-.23,1.22-.51s.57-.44.6.4a1.21,1.21,0,0,1,1-1.4c.55-.17,1.23-.35,1.32-1.35l.41.76c.1-.23.23-.8.53-1,0,.43.06.86.08,1.3.2-.69.69-.82,1.25-.93s1.13-.16,1.33-.67c-1.53,1.32-1-.5-2.06-.46.59-1.21,1.18-1,1.91-.76a1.78,1.78,0,0,0,2.33-.51c-.16.32-1.31.51-1.17-.16a3,3,0,0,1,1.69-.27c1-1.23-.79-.47-.65-1.32,1.12.38.28-.86.56-1.57l.59.64c1.65-.74-.87-1.68.74-2.18l.3,1.33.38-.73.52.86c0-1,0-.7.79-.83-.42-.47-.63-1.47-.05-1.75.56.35.13.83.78.46,0,.58.15,1.25-.47.64.08.28.06.57.15.84.6.37.82-.19,1-.22a.39.39,0,0,1-.23-.15,8.4,8.4,0,0,1,.44-1.31,1.87,1.87,0,0,1,0,.85c.06-.09.12-.5.24-.56-.06.35-.11.71-.15,1a.76.76,0,0,1,0,.15c0,.11,0,.23,0,.38a3.14,3.14,0,0,1,.06-.75s-.13.29-.09.21l-.12.22c0,.06-.13.23-.21.33-.31.36,0,.13.13.07.32-.16.69-.2.56.09a.63.63,0,0,1,.38-.07c0,.21-.14.49-.18.73s0,.46.56.77a12.69,12.69,0,0,1-1.23.5c.15.28.55.14,1,0s.86-.22,1.12.38c.38.91-1.1.29-1.46.56.62.4,1.83,1.45.62,2.15C808.89,890.06,809.13,889.87,809.08,889.59Zm-5.18,12.63v-.28a.91.91,0,0,1,.65-1c.74.37.36.58-.24,1Zm11,9.81c-.28.38-.6.27-.86,0A.93.93,0,0,1,814.85,912Zm18.56,16.17h-.06C834,927.93,833.76,928,833.41,928.2Zm-.49.43a2.77,2.77,0,0,0,.57-.15,1,1,0,0,1-.35,0c-.1,0-.14,0-.14-.09-.28.09-.46.18-.24.2Zm-43.64-41.34.15.23C789.13,887.78,789.21,887.55,789.28,887.29Z" transform="translate(-377.81 -308.52)"/><path class="cls-1" d="M811.76,913.77a1.11,1.11,0,0,1,.09-.49C811.67,913.44,811.58,913.62,811.76,913.77Z" transform="translate(-377.81 -308.52)"/><path class="cls-1" d="M808.29,885.38v0l-.14.08Z" transform="translate(-377.81 -308.52)"/><path class="cls-1" d="M832.11,914.69a1,1,0,0,1,.55-.24A.41.41,0,0,0,832.11,914.69Z" transform="translate(-377.81 -308.52)"/><path class="cls-1" d="M836.44,928.59a2.06,2.06,0,0,1-.35.12c.12,0,0,.17-.05.3C836.18,928.84,836.38,928.58,836.44,928.59Z" transform="translate(-377.81 -308.52)"/><path class="cls-1" d="M838.65,934.32c.11-.11.23,0,.34-.12l0-.4C838.52,933.82,838.19,934.14,838.65,934.32Z" transform="translate(-377.81 -308.52)"/><path class="cls-1" d="M834.7,931.17c-.45.64,0,.55.46.51a.07.07,0,0,1-.06,0C835.72,930.75,835.26,931,834.7,931.17Z" transform="translate(-377.81 -308.52)"/><path class="cls-1" d="M835.25,931.68a.58.58,0,0,1,.33.07C835.79,931.37,835.5,931.64,835.25,931.68Z" transform="translate(-377.81 -308.52)"/><path class="cls-1" d="M834.12,928.69c-.16.15,1.29-.51.93-.32.64-.25.19-.13-.34,0S833.56,928.69,834.12,928.69Z" transform="translate(-377.81 -308.52)"/><path class="cls-1" d="M833.51,933.4l.39-.85c-.23.19-.47.37-.71.55Z" transform="translate(-377.81 -308.52)"/><path class="cls-1" d="M830.54,931.44a6.4,6.4,0,0,0,.41.5.8.8,0,0,1,.49-.14C831.06,931.59,830.83,931.26,830.54,931.44Z" transform="translate(-377.81 -308.52)"/><path class="cls-1" d="M831.44,931.8a.89.89,0,0,0,.68.12A2.32,2.32,0,0,0,831.44,931.8Z" transform="translate(-377.81 -308.52)"/><polygon class="cls-1" points="454.46 624.74 454.37 624.5 453.88 624.24 454.46 624.74"/><path class="cls-1" d="M830.77,926.36l.2-.68a.47.47,0,0,0-.68.28C830.4,926.17,830.36,926.42,830.77,926.36Z" transform="translate(-377.81 -308.52)"/><path class="cls-1" d="M826.93,928.47a1.86,1.86,0,0,1,.69-.38l-.88,0C826.81,928.25,826.88,928.36,826.93,928.47Z" transform="translate(-377.81 -308.52)"/><path class="cls-1" d="M827.52,926.07a.28.28,0,0,1-.12-.08c-.18-.29.09-1.34-.76-.21.05,0,.07.07.09.13C827,926.22,827.12,926.77,827.52,926.07Z" transform="translate(-377.81 -308.52)"/><polygon class="cls-1" points="457.62 605.85 457.57 606.07 459.35 606.55 457.62 605.85"/><path class="cls-1" d="M831.61,907.57c-.22.64,1.06-.92.74-.15.47-.24.26-.65.65-.87C832.43,906.67,832.56,906.38,831.61,907.57Z" transform="translate(-377.81 -308.52)"/><path class="cls-1" d="M833,906.55a2.34,2.34,0,0,0,.35-.08A.79.79,0,0,0,833,906.55Z" transform="translate(-377.81 -308.52)"/><polygon class="cls-1" points="402.38 546.77 402.73 546.04 402.13 546.53 402.38 546.77"/><path class="cls-1" d="M778.77,854l1.17-.24-1.08-.35C778.92,853.6,779,853.9,778.77,854Z" transform="translate(-377.81 -308.52)"/><path class="cls-1" d="M799.26,905.41h.35a1.73,1.73,0,0,0,.86-1C800.07,904.75,799.66,905.07,799.26,905.41Z" transform="translate(-377.81 -308.52)"/><polygon class="cls-1" points="429.21 585 429.14 585.12 430.22 585.26 429.21 585"/><path class="cls-1" d="M807,887.82c-.06.17.18.38.11.57C806.93,888,808.29,887.81,807,887.82Z" transform="translate(-377.81 -308.52)"/><path class="cls-1" d="M627,309.15c.11,0-.4-.52-.48-.63C626.51,308.76,627.13,309.29,627,309.15Z" transform="translate(-377.81 -308.52)"/><polygon class="cls-1" points="249.09 2.95 248.91 2.71 249.22 3.4 249.09 2.95"/><path class="cls-1" d="M625.76,312.51c.94.8.28-.52.77-.39l.23.17-.58-.8C626,311.83,626.17,312.6,625.76,312.51Z" transform="translate(-377.81 -308.52)"/><path class="cls-1" d="M623.35,311.14c.37.32.15.42.25,0l-.11-.06A.31.31,0,0,1,623.35,311.14Z" transform="translate(-377.81 -308.52)"/><path class="cls-1" d="M623.49,311.06c.09-.14-.35-.22,0,0Z" transform="translate(-377.81 -308.52)"/><path class="cls-1" d="M623.13,311.77l-.14-.46c-.22-.17-.4-.09-.49-.29C622.5,311.34,622.72,311.51,623.13,311.77Z" transform="translate(-377.81 -308.52)"/><path class="cls-1" d="M623.59,312.56l-.05-.21C623.45,312.28,623.4,312.27,623.59,312.56Z" transform="translate(-377.81 -308.52)"/><path class="cls-1" d="M623.46,311.91l.08.44c.16.12.44.41,0-.17C623.76,312.46,623.56,312.17,623.46,311.91Z" transform="translate(-377.81 -308.52)"/><path class="cls-1" d="M623.68,312c.27.11.5.13.63.58C624.5,312.14,623.87,311.55,623.68,312Z" transform="translate(-377.81 -308.52)"/><path class="cls-1" d="M626.57,313.49l.36.16-.18-.4C626.84,313.45,626.3,313.22,626.57,313.49Z" transform="translate(-377.81 -308.52)"/><path class="cls-1" d="M621.72,312.21c.17.2.52.46.76.7l-.09-.33A1.47,1.47,0,0,1,621.72,312.21Z" transform="translate(-377.81 -308.52)"/><path class="cls-1" d="M622.48,312.91l.13.48C622.8,313.29,622.69,313.11,622.48,312.91Z" transform="translate(-377.81 -308.52)"/><polygon class="cls-1" points="246.68 5.05 246.32 4.1 246.63 5.11 246.68 5.05"/><polygon class="cls-1" points="243.22 4.28 242.91 3.75 243.36 4.58 243.22 4.28"/><path class="cls-1" d="M620.67,313.29c-.27-.43-.68-.52-.81-.82-.06.18.13.59.3,1C620.11,313.18,620.26,313.12,620.67,313.29Z" transform="translate(-377.81 -308.52)"/><path class="cls-1" d="M620.39,314a3.46,3.46,0,0,0-.23-.55A2.08,2.08,0,0,0,620.39,314Z" transform="translate(-377.81 -308.52)"/><path class="cls-1" d="M622.23,313.57a2,2,0,0,0-.64-.41l.57.47Z" transform="translate(-377.81 -308.52)"/><path class="cls-1" d="M622.17,313.65v0l-.18.11A1.15,1.15,0,0,1,622.17,313.65Z" transform="translate(-377.81 -308.52)"/><path class="cls-1" d="M622.25,313.56h0C622.29,313.62,622.31,313.64,622.25,313.56Z" transform="translate(-377.81 -308.52)"/><path class="cls-1" d="M623.58,313.52c.18.39.26.91.9,1.17C624.21,314.26,623.85,314.11,623.58,313.52Z" transform="translate(-377.81 -308.52)"/><path class="cls-1" d="M623,314.15l.3,0a2,2,0,0,1-.45-.51Z" transform="translate(-377.81 -308.52)"/><polygon class="cls-1" points="245.22 5.88 245.15 5.63 245.04 5.64 245.22 5.88"/><path class="cls-1" d="M621.17,314.19a.49.49,0,0,1,0,.53.62.62,0,0,0,.47-.13C621.51,314.41,621.27,314.06,621.17,314.19Z" transform="translate(-377.81 -308.52)"/><path class="cls-1" d="M621.7,314l0,0S621.79,314.06,621.7,314Z" transform="translate(-377.81 -308.52)"/><path class="cls-1" d="M620.21,315.62l.11.08-.09-.09Z" transform="translate(-377.81 -308.52)"/><path class="cls-1" d="M621.76,314.67c.17,0,.1-.14,0-.35a.46.46,0,0,1-.1.27C621.71,314.67,621.76,314.72,621.76,314.67Z" transform="translate(-377.81 -308.52)"/><path class="cls-1" d="M620.36,314.48a2.75,2.75,0,0,0,.41.17C620.57,314.52,620.24,314.33,620.36,314.48Z" transform="translate(-377.81 -308.52)"/><path class="cls-1" d="M621.55,313.89v0C621.41,313.77,621.46,313.82,621.55,313.89Z" transform="translate(-377.81 -308.52)"/><path class="cls-1" d="M621.55,313.89a2.29,2.29,0,0,0,.2.43.81.81,0,0,0,0-.3Z" transform="translate(-377.81 -308.52)"/><path class="cls-1" d="M623.12,319.33c-.44-.51-.66-1.16,0-.8a12.45,12.45,0,0,0-2.81-2.83,1.74,1.74,0,0,1,.47.89c.32.21,1,.26,1.26.85,0,.48-.36,0-.72-.15.68.53.53,1.19,1.43,2l-.08-.52C622.81,319,623,319.26,623.12,319.33Z" transform="translate(-377.81 -308.52)"/><path class="cls-1" d="M620.71,315.43l0-.13a2.76,2.76,0,0,1-.89-.43,1.87,1.87,0,0,0,.39.74l.44-.28Z" transform="translate(-377.81 -308.52)"/><path class="cls-1" d="M621.06,315c.45.6.48,1,1.14,1.48.18-.24-.27-.6-.36-.95-.23.46-.18-.4-.72-.47a.57.57,0,0,1,.06-.32,1.68,1.68,0,0,1-.41-.07l0,0h0c.08.05.13.09.07.07h0l.17.22c-.21,0-.15-.12-.17-.22l-.08-.08h0l-.08.63C620.87,315.31,621,315.2,621.06,315Z" transform="translate(-377.81 -308.52)"/><path class="cls-1" d="M625.37,316a.75.75,0,0,1-.13-.11C625.28,316,625.31,316.06,625.37,316Z" transform="translate(-377.81 -308.52)"/><path class="cls-1" d="M624.92,315.84c0-.1-.23-.33-.09-.36s.24.26.41.44a.94.94,0,0,0-.59-.67l.05.1a3.64,3.64,0,0,1-1.18-.65A17,17,0,0,0,624.92,315.84Z" transform="translate(-377.81 -308.52)"/><path class="cls-1" d="M623.11,315.56l-.05.54.59.33-.27-.28C623.65,316.11,623.29,315.8,623.11,315.56Z" transform="translate(-377.81 -308.52)"/><polygon class="cls-1" points="242.12 6.86 241.62 6.25 242.2 7.22 242.12 6.86"/><polygon class="cls-1" points="241.8 7.29 241.35 6.78 241.53 7.17 241.8 7.29"/><path class="cls-1" d="M603.68,342.17l.05.23A.56.56,0,0,0,603.68,342.17Z" transform="translate(-377.81 -308.52)"/><path class="cls-1" d="M604.34,341.62l-.21-.26C604.23,341.52,604.31,341.64,604.34,341.62Z" transform="translate(-377.81 -308.52)"/><path class="cls-1" d="M610.23,324.66c-.56-.34-1.37-.93-.83-.38l.54.5C609.94,324.6,610.06,324.6,610.23,324.66Z" transform="translate(-377.81 -308.52)"/><path class="cls-1" d="M606.8,333.93l.19.13-.4-.6Z" transform="translate(-377.81 -308.52)"/><path class="cls-1" d="M608.81,336.27l-.49-.2A1.94,1.94,0,0,0,608.81,336.27Z" transform="translate(-377.81 -308.52)"/><path class="cls-1" d="M600.79,346l.41.65C601.36,346.45,601,346.24,600.79,346Z" transform="translate(-377.81 -308.52)"/><path class="cls-1" d="M615.86,319.68c-.31-.11-.48-.12-.58-.07C615.71,319.79,616.25,320.16,615.86,319.68Z" transform="translate(-377.81 -308.52)"/><path class="cls-1" d="M598.55,336.18a1,1,0,0,0,.23.4A.72.72,0,0,0,598.55,336.18Z" transform="translate(-377.81 -308.52)"/><path class="cls-1" d="M615,319.9l.18.08c0-.17,0-.32.13-.37C615,319.46,614.72,319.42,615,319.9Z" transform="translate(-377.81 -308.52)"/><path class="cls-1" d="M587.92,357.12l-.09,0C587.9,357.15,587.91,357.15,587.92,357.12Z" transform="translate(-377.81 -308.52)"/><path class="cls-1" d="M579.18,355c0-.06.06-.12.11-.18S579.18,354.87,579.18,355Z" transform="translate(-377.81 -308.52)"/><path class="cls-1" d="M617.84,317c0-.11,0-.07,0,0Z" transform="translate(-377.81 -308.52)"/><path class="cls-1" d="M620.24,318.79a1.29,1.29,0,0,0,.22.3A1.41,1.41,0,0,1,620.24,318.79Z" transform="translate(-377.81 -308.52)"/><path class="cls-1" d="M617.32,324h0C617.43,324.13,617.41,324.11,617.32,324Z" transform="translate(-377.81 -308.52)"/><path class="cls-1" d="M618.19,317.15a1,1,0,0,0-.25-.07A1,1,0,0,0,618.19,317.15Z" transform="translate(-377.81 -308.52)"/><path class="cls-1" d="M617.94,316.91l.12,0C618,316.79,617.92,316.74,617.94,316.91Z" transform="translate(-377.81 -308.52)"/><path class="cls-1" d="M617.75,317.15a.24.24,0,0,1,.19-.07c-.05,0-.09,0-.1-.07A.63.63,0,0,1,617.75,317.15Z" transform="translate(-377.81 -308.52)"/><path class="cls-1" d="M593.23,349.44l-.06,0C593.3,349.71,593.3,349.64,593.23,349.44Z" transform="translate(-377.81 -308.52)"/><path class="cls-1" d="M613.38,332.28l0,0h0Z" transform="translate(-377.81 -308.52)"/><path class="cls-1" d="M613.46,333c-.5-.79-.36-.77-.13-.72l-1.56-1.48Z" transform="translate(-377.81 -308.52)"/><path class="cls-1" d="M602.32,343.73l.66.3c.51,1,.07.93.9,1.43-1.56-1.73.64-.92-.92-2.64l.47.23s0,.13,0,.14c1,.57-.95-1.41-.39-1.48a.82.82,0,0,1,.66.46l-.13-.66c.11,0,.37.27.26.31l.28-.51,0,.05a11.17,11.17,0,0,1-.55-1.09c.33.15.12.23.34.42l-.16-.62c.5.36.72,1,.51,1,1.79,1.5-.22-.6,1.16,0v.41c1,.84.87.34,1.67.72-.35-.26-1.89-1.07-2-1.72.18.06.33,0,.14-.42.57.6.55.33.68.15l.74.81c-.05-.39-.44-.79-.67-1.24.26-.1.88.48,1.41,1,.43-.16-1.14-.79-.92-1.29.55.07.42-.42.28-1.19.43.11.42.52.7.69l-.44-.78c.06,0,.23.18.31.29-.09-.37-.73-.81-.73-1.23-.76-.93,1.64.89,1-.35.28.16.43.52.74.81a6.91,6.91,0,0,0-.67-1.92l.74.29a4.38,4.38,0,0,1-1.52-2.14l-.78-.52-.07-.73a3.06,3.06,0,0,1,.64.78l-.12-.24a3.2,3.2,0,0,1,1.1,1.23l-.58-.39a10.37,10.37,0,0,0,1.26,1.63.62.62,0,0,1-.1-.32,2,2,0,0,0,.29.36c.09.07-.05-.14-.18-.39l.9.82-.31-.37.95.16c-.53-1.19-1.5-2.76-1.36-3.58a12.92,12.92,0,0,0,1.69,1.87c-.9-.69,0,.71-.46.77.22,0,.53.36.62.52l-.25-1.16c.58.64.54.38.9.54-1.26-1.17-.44-1.15-.62-1.71.41.41.76.89.45,1,1.12.72-1.06-1.77-.07-1.19-.05.06-.14,0,0,.26-.22-.5.37-.49.64-.05l0,.06c.5-.19,1.11-1,.17-2.14.13.14,1.15,1.33,1.33,1.57l-2.7-4.19c.8,1,3,2.94,3.23,3.74.21.05.46.1.34-.39a6.82,6.82,0,0,1-1.38-1.35,10,10,0,0,0,1.74,1c-.27-.11-1.51-1.64-1.33-1.72.18.23,1.34,1.4,1.42,1.6l-1-1.73a7.43,7.43,0,0,0,1.54,1.53c-.29-.24.33-.25.29-.48l-.45-.19c.59-.15-1.46-2.34-1-2.63.23.34,1.56,1.9,1.92,1.9-.58-.81-2.84-3.85-3-4.72l.45.35-.18-.72c.85,1.24,2.52,4,3.1,5.08.45.19.5.45.68.21a.75.75,0,0,1,.39.78l.74-.23c-.81-.82-.4-1.21-1.07-1.89l.26,1.39c-.81-.82-1.91-2.69-1.41-2.88A16.84,16.84,0,0,1,617,329c-.23-.34-.18-.88.05-.7l.26.59c.5.13-.71-1.42.28-.84.14,0,1.26.85.81.34a45.49,45.49,0,0,1-4.41-4.59,12.16,12.16,0,0,1,1.83.89c.84.63,1.47,2,2.19,2.53a3,3,0,0,1-.45-.71c.27.11.63.75.72.46-.76-.88.46-.28-.58-.8,0-.42.36,0,.54-.25a7,7,0,0,1-1.59-2.48,4,4,0,0,0,.64.58c.45-.28,1-.08,1.38-.41.22.18.63.27.9.71-.09-.2-.31-.54-.22-.66.9.54-.14.34.85,1.08-.45-.51-.36-.95-.49-1.41-.76-.72-.5.19-.36.65a7,7,0,0,1-1.84-3.25c.06-.54.77.56.68.36.73-.33-1.25-2.29-.07-1.95a11.14,11.14,0,0,1,1.75,1.78c0,.48-.77-.09-.91.09l.5.13c.13.3.13.62-.14.51.72.46,1-.76,2-.61a1.88,1.88,0,0,0-.54-.86l0,.22c-.63-.43-.44-1-.85-1.08-.18-.56-.53-1.35,0-1.28l.77.73c-.22-.22-.6-.31-.45,0-.21-.44,1.36.67.54-.45l-.68-.36c-.17-.56-.71-1.58-.26-1.55-.81-.66,0,.13-1-.6,1.17,1-.62.49.69,1.44-1.13-.87-.7-.17-1.73-.84.24.24.52.41.22.46a2.05,2.05,0,0,1,.16.26h0l0,0s0,.05,0,0a2,2,0,0,1,.45.3c.45.67.13.93.31,1.33-.23,0-.23-.33-.54-.55l.27.6c-.54-.55-1.17-.66-1.22-1.24l-.26.2c-.43-.18-.75-.13-.64.22-.23,0,.29.89,0,.36l-.05.7-.14-.14c-.43.28.11,1.65-1.26,1,0,.25,0,.55-.32.58l-.5-.45c0,.32-.93,0-.53.54-1.39-1.15-1,.44-1.54.47l.58.64c-.23.15-.24.5-.25,1l.54.55c.22.66-.91.1-1.18.46-.18-.23,0-.25.14-.18-1.58-.9,0,1.7-1.19,1.11.1.28,0,.27-.22.19a0,0,0,0,0,0-.05s0,0,0,0-.27-.14-.4-.19a3.41,3.41,0,0,0,.38.21.75.75,0,0,0-.06.48l-.61-.57s0,0,0,0c-.3-.13.19.36.67.77a2.3,2.3,0,0,0,.2.49c-1-.9,0,.57-1-.36.41.57-.15.86.79,2-.14-.13-.23-.17-.18-.23-.23,0-.46,0-.28.36l-.76-.72.71,1.26a2.7,2.7,0,0,1-1.3-1.27c.49,1.25,0,.62.56,1.8l-.45-.51c-.09.12.35.95-.09.6-1.13-.71-1.34,1-2.79.72,1.49,1.34-.9-.38.13.77-.36-.31-.63-.42-.81-.82,0,.64-1-.1-.32,1.07-.36-.32-.4-.57-.63-.75,0,.1.18.4-.05.22s-.22-.33-.31-.53c-.27.36.69,1.46,1.6,2.48-.61-.32-.63-.17-.14.59-.36-.27-.78-.52-.69-.83-.16.06-1.14.18-.41,1-.22-.17-.21.09-.16.21-.3.19-.39.14-.57.45l.19.07c.8,1.06,0,.41-.1.72l-.09-.11c-1.12-.26.11.52-1.09.16l.58.58c1.16,1.33-1.12-.39-.92.36l.41.25c.27.58-2.05-1.37-2.34-1.4s-.12-.23-.15-.35c-1.1-.41.68.83.56,1.28-.44-.37-.93-1.14-1.2-1-.42-.25.73,1.9-.3,1.33a2,2,0,0,1,.83.92c-.1.3-1.71-.73-.93.48a1.6,1.6,0,0,1-.28-.22c.09.41-.09.91.34,1.56-2.08-1.94,0,1.91-1.81,0l-.39.55-.17-.21c-.42.16-.1.72.22,1.28-.19-.06-.31-.29-.4-.39-.8,0-.77.15-.26,1.46l-.62-.59c.24.46-1.55-.37-1.32.76a1.36,1.36,0,0,1-.21-.32c.19,1.19-2.79-.62-.86,1.81l.2.86c.58-.21.85,1,1.37,1.26,0,.29-1.06-.28-1-.59l.14.08c-1-1.25-.91.07-1.65-.74-.78.83-2.19.94-3,1.61l1,.83-.32.2c-.27-.14-.77-.62-.54-.77-.59-.42.08.74.26.95-.72,0-.85-1.21-1-1.13l-.1.22.14.07c.22.5.58.91.3,1.08-.31-.05-.6-.5-.69-.48s-.11-.08-.11.06l-.42.24.81.59c.19.5-.35.27.57.94-1.41-1.05-1.7.73-2.21.47.28.73.07.92-.25,1.09.2.09,1,.87.68,1-1.48-1.75-1.09-.35-2.39-1.38.91.65-.46.79.86,1.69-.31,0-.6-.62-1.11-.88.16,1.06-1.37.49-1.72,1.22a3.41,3.41,0,0,1,.8.92l-1.32-.84c0,.21,1.08,1.37.17.79.2.16.51.4.5.54-2.08-.07-1.38,2.93-4.35,1.93.54.29.48.42.39.54.17,0,.5.55.8.84l-1.24-.41c.69.91-.43.52.26,1.35v-.27c.68,1.11,2.21,1.82,3.3,3.05-.78-1.27,2,1,1-.81.31.17.3.45.6.69-.39-.6-.38-.81,0-.76l.1.14c.44-.65,1.16-.37,2.11-.62l-.6-.55c.21-.05.41.11.61.2-.68-1-.43.31-1.21-.82,1.31,1,1-.87,2.38.38.21-.18-.7-.63-.49-.81l.4.32-.39-.53c.21-.05.71.35,1,.66-.06,0,0,.18,0,.24.59.27.36-.62.56-.54l-.42,0c.25-.88,1.4-1,1.25-2.31L589,354c-.06-.91.62,0,.86-.68l0,.08c-.17-.36-.18-.62,0-.71.19.44.81.44,1,.94-.06-1-.18-.65-.85-2l.5.4c-.29-.52-.49-.75-.37-1.08.18.57.81.57,1.09,1.29,1.43.57-.24-1.69,1.37-.42-1-1.49-1.08-.32-1.22-.71-.49-.32-.71-1.13-.44-1.15s1.8,1.4,2.17,1c0,0,0,.13,0,.16.45.19-.13-.71.55-.35-.63-.87.27-.17-.63-1.19l-.14.56c0-.45-.93-1.78-.07-1.53a3.29,3.29,0,0,1,.37.79c.37.2,0-.37.39-.16.9,1-.23.62.26,1.58.49.32-.26-1.11.63.07-1.12-1.51.55-.19-.16-1.48l.53.62c0-.14-.22-.5-.13-.55l.58.9c-.4-.86.95.19.82-.36-.41.42-.76-.63-1.35-.89-.21-1.29,1.76,1.27,2.08.43,0,.16-.63-.08-.76-.47a2.1,2.1,0,0,1,1,.35c.28-.49-.63-.55-.81-1.07.81.6-.08-.48-.12-.87l.56.6c.81,0-1.05-1.37-.21-1.27l.61,1v-.41l.59.73c-.24-.72-.05-.66.35-.68-.45-.37-1-1.12-.81-1.32.47.23.46.64.66.29.29.44.66,1,0,.54.17.21.29.44.46.64.53.28.46-.25.55-.35a.27.27,0,0,1-.24,0l-.37-1.22a1.42,1.42,0,0,1,.51.62c0-.14-.18-.47-.11-.64.43.52.91,1,.95,1.41l-.12-.9c.23.19.75.4.87.63.48.08-.37-1.45.28-1.33a.7.7,0,0,1-.14-.36c.37-.14,1.17.24.86-.73l1,.71c.07-.43-1.27-.88-1.17-1.6,0-.55.81.65,1.14.8-.27-.58-.86-1.72.08-1.25C602.54,343.66,602.35,343.59,602.32,343.73Zm2.71-3.25c.06.18.3.69-.07.37C604.38,340.09,604.74,340.38,605,340.48Zm3.31-5.81c.14.24,0,.21-.31.05C608,334.62,608.12,334.58,608.34,334.67Zm9.07-16.33s0,0,0,0C617.08,318.26,617.21,318.31,617.41,318.34Zm.52,0a.7.7,0,0,0-.22-.26c.12.17.07.24,0,.26C617.83,318.48,618,318.56,617.93,318.34Zm-29.36,27.84.2.11C588.81,346.58,588.7,346.39,588.57,346.18Z" transform="translate(-377.81 -308.52)"/><path class="cls-1" d="M608.58,336a3,3,0,0,1-.33-.3A.69.69,0,0,0,608.58,336Z" transform="translate(-377.81 -308.52)"/><path class="cls-1" d="M600.71,345.83h0a.48.48,0,0,0,.09.11Z" transform="translate(-377.81 -308.52)"/><path class="cls-1" d="M618.44,327.45a1.19,1.19,0,0,1-.4-.21C618.18,327.39,618.32,327.49,618.44,327.45Z" transform="translate(-377.81 -308.52)"/><path class="cls-1" d="M618.43,316l0,.32c.06-.11.21,0,.34.05C618.61,316.19,618.38,316,618.43,316Z" transform="translate(-377.81 -308.52)"/><path class="cls-1" d="M623.45,318.27c0-.1,0-.06,0-.16l-.27-.28C623.09,318,623.23,318.25,623.45,318.27Z" transform="translate(-377.81 -308.52)"/><path class="cls-1" d="M620.47,317.81c.48.5.43.22.47,0l0,0C620.29,317.1,620.38,317.45,620.47,317.81Z" transform="translate(-377.81 -308.52)"/><path class="cls-1" d="M621,317.78c0-.06,0-.11.1-.12C620.8,317.36,621,317.64,621,317.78Z" transform="translate(-377.81 -308.52)"/><path class="cls-1" d="M618,317.68c.18.08-.57-.68-.34-.51C617.08,316.47,618,318.32,618,317.68Z" transform="translate(-377.81 -308.52)"/><polygon class="cls-1" points="244.32 10.87 243.69 10.28 244.09 10.85 244.32 10.87"/><path class="cls-1" d="M620.72,319.84h.36a.45.45,0,0,1-.14-.26C620.79,319.66,620.54,319.66,620.72,319.84Z" transform="translate(-377.81 -308.52)"/><path class="cls-1" d="M620.94,319.57a.18.18,0,0,0,.06-.25A.32.32,0,0,0,620.94,319.57Z" transform="translate(-377.81 -308.52)"/><polygon class="cls-1" points="244.22 11.31 244.04 11.23 243.86 11.32 244.22 11.31"/><path class="cls-1" d="M618.49,321.7l0,.38c.18.24.36.32.36.16S618.71,321.88,618.49,321.7Z" transform="translate(-377.81 -308.52)"/><path class="cls-1" d="M620.74,322.81a2.45,2.45,0,0,1-.54-.39l.72.79Z" transform="translate(-377.81 -308.52)"/><path class="cls-1" d="M620.28,323.58c.18.24.27.91.5.61C620.6,324,620.65,323.57,620.28,323.58Z" transform="translate(-377.81 -308.52)"/><polygon class="cls-1" points="238.31 17.1 238.35 17.04 237.16 15.77 238.31 17.1"/><path class="cls-1" d="M616.1,331.35c.54.07-.67-.84-.08-.68-.23-.35-.48-.13-.66-.45C615.5,330.68,615.25,330.58,616.1,331.35Z" transform="translate(-377.81 -308.52)"/><path class="cls-1" d="M615.36,330.22c0-.07-.06-.16-.11-.27A1,1,0,0,0,615.36,330.22Z" transform="translate(-377.81 -308.52)"/><polygon class="cls-1" points="200.13 46.37 199.71 46.25 200.22 46.58 200.13 46.37"/><path class="cls-1" d="M578.5,356.13l-.79-.78.58.83C578.3,356.11,578.3,356,578.5,356.13Z" transform="translate(-377.81 -308.52)"/><path class="cls-1" d="M607,341.69l-.17-.2c-.22-.19-.27-.17-.38-.13Z" transform="translate(-377.81 -308.52)"/><polygon class="cls-1" points="226.41 34.64 226.46 34.62 225.7 33.95 226.41 34.64"/><path class="cls-1" d="M603.22,345.85c.11-.05,0-.29.15-.33C603.33,345.8,602.35,345,603.22,345.85Z" transform="translate(-377.81 -308.52)"/><path class="cls-1" d="M660.92,429.86c.09.09.22-.62.27-.74C661,429.23,660.88,430,660.92,429.86Z" transform="translate(-377.81 -308.52)"/><polygon class="cls-1" points="281.1 122.51 281.2 122.24 280.79 122.87 281.1 122.51"/><path class="cls-1" d="M657.39,430.65c-.15,1.22.6-.06.77.43l0,.28.36-.92C658.13,430.51,657.54,431,657.39,430.65Z" transform="translate(-377.81 -308.52)"/><path class="cls-1" d="M657.23,427.88c-.07.47-.28.35.15.19V428A.38.38,0,0,1,657.23,427.88Z" transform="translate(-377.81 -308.52)"/><path class="cls-1" d="M657.38,428c.16,0,0-.42,0,0Z" transform="translate(-377.81 -308.52)"/><path class="cls-1" d="M656.57,428l.32-.35c0-.29-.15-.4,0-.58C656.59,427.26,656.56,427.54,656.57,428Z" transform="translate(-377.81 -308.52)"/><path class="cls-1" d="M656.15,428.84l.16-.15C656.32,428.57,656.3,428.52,656.15,428.84Z" transform="translate(-377.81 -308.52)"/><path class="cls-1" d="M656.63,428.38l-.32.31c0,.2-.12.58.14-.11C656.34,428.93,656.47,428.61,656.63,428.38Z" transform="translate(-377.81 -308.52)"/><path class="cls-1" d="M656.72,428.6c0,.29.16.49-.16.84C657,429.38,657.16,428.53,656.72,428.6Z" transform="translate(-377.81 -308.52)"/><path class="cls-1" d="M657,431.85l.07.39.24-.36C657.19,432.06,657.09,431.48,657,431.85Z" transform="translate(-377.81 -308.52)"/><path class="cls-1" d="M655.42,427.07c-.08.25-.1.69-.17,1l.23-.25A1.57,1.57,0,0,1,655.42,427.07Z" transform="translate(-377.81 -308.52)"/><path class="cls-1" d="M655.25,428.09l-.34.37C655.1,428.57,655.19,428.37,655.25,428.09Z" transform="translate(-377.81 -308.52)"/><polygon class="cls-1" points="277.97 121.62 278.58 120.81 277.89 121.61 277.97 121.62"/><polygon class="cls-1" points="276.74 118.29 277.02 117.74 276.56 118.56 276.74 118.29"/><path class="cls-1" d="M653.93,426.76c.23-.46.08-.85.26-1.12-.18,0-.42.42-.64.77C653.73,426.23,653.86,426.32,653.93,426.76Z" transform="translate(-377.81 -308.52)"/><path class="cls-1" d="M653.2,426.9a4.65,4.65,0,0,0,.35-.49A1.76,1.76,0,0,0,653.2,426.9Z" transform="translate(-377.81 -308.52)"/><path class="cls-1" d="M654.55,428.23a1.77,1.77,0,0,0,0-.76l-.09.73Z" transform="translate(-377.81 -308.52)"/><path class="cls-1" d="M654.45,428.22v0l-.19-.09Z" transform="translate(-377.81 -308.52)"/><path class="cls-1" d="M654.57,428.24h0C654.54,428.31,654.54,428.33,654.57,428.24Z" transform="translate(-377.81 -308.52)"/><path class="cls-1" d="M655.33,429.34a1.72,1.72,0,0,0-.51,1.39C655,430.27,655,429.89,655.33,429.34Z" transform="translate(-377.81 -308.52)"/><path class="cls-1" d="M654.45,429.16l.21.22a2,2,0,0,1,.19-.65Z" transform="translate(-377.81 -308.52)"/><polygon class="cls-1" points="276.46 120.83 276.64 120.63 276.57 120.55 276.46 120.83"/><path class="cls-1" d="M653.45,427.67a.51.51,0,0,1-.46.29.65.65,0,0,0,.37.32C653.44,428.06,653.6,427.68,653.45,427.67Z" transform="translate(-377.81 -308.52)"/><path class="cls-1" d="M653.92,428l0,0C653.88,428.1,653.89,428.12,653.92,428Z" transform="translate(-377.81 -308.52)"/><path class="cls-1" d="M651.7,427.61l0,.14,0-.12Z" transform="translate(-377.81 -308.52)"/><path class="cls-1" d="M653.35,428.42c.07.16.18,0,.3-.2a.4.4,0,0,1-.29.06C653.33,428.38,653.31,428.45,653.35,428.42Z" transform="translate(-377.81 -308.52)"/><path class="cls-1" d="M652.75,427.13a3.91,3.91,0,0,0,.08.44C652.84,427.33,652.82,427,652.75,427.13Z" transform="translate(-377.81 -308.52)"/><path class="cls-1" d="M653.9,427.83l0,0C653.93,427.64,653.92,427.72,653.9,427.83Z" transform="translate(-377.81 -308.52)"/><path class="cls-1" d="M653.9,427.83a2.64,2.64,0,0,0-.25.39.67.67,0,0,0,.24-.19A1.48,1.48,0,0,1,653.9,427.83Z" transform="translate(-377.81 -308.52)"/><path class="cls-1" d="M650.1,432.05c.19-.65.63-1.18.69-.41a12,12,0,0,0,.89-3.89,1.62,1.62,0,0,1-.5.87c0,.38.33,1,0,1.52-.41.25-.2-.3-.27-.69-.08.85-.73,1.08-1,2.3l.39-.35C650.25,431.59,650.07,431.86,650.1,432.05Z" transform="translate(-377.81 -308.52)"/><path class="cls-1" d="M652.13,427.94l.12-.06a2.81,2.81,0,0,1-.11-1,1.87,1.87,0,0,0-.42.73l.47.22Z" transform="translate(-377.81 -308.52)"/><path class="cls-1" d="M652.7,428a5,5,0,0,0-.64,1.74c.31,0,.36-.54.62-.8-.52.05.24-.37,0-.86a.51.51,0,0,1,.3-.12,1.76,1.76,0,0,1-.16-.39v.05h0v0c0,.09,0,.15,0,.09h0a1.57,1.57,0,0,1-.1.26c-.09-.18,0-.19.1-.26l0-.1h0l-.58.26C652.33,428,652.46,428,652.7,428Z" transform="translate(-377.81 -308.52)"/><path class="cls-1" d="M654.17,432.2a.51.51,0,0,1,0-.17C654.14,432.11,654.12,432.17,654.17,432.2Z" transform="translate(-377.81 -308.52)"/><path class="cls-1" d="M654.08,431.72c.06-.09.17-.37.26-.27s-.09.35-.14.58a.93.93,0,0,0,.24-.85l-.06.09a3.57,3.57,0,0,1-.08-1.34A15.35,15.35,0,0,0,654.08,431.72Z" transform="translate(-377.81 -308.52)"/><path class="cls-1" d="M653.33,430l-.49.24,0,.68.09-.38C653.16,430.79,653.23,430.32,653.33,430Z" transform="translate(-377.81 -308.52)"/><polygon class="cls-1" points="273.94 118.72 274.19 117.98 273.68 118.98 273.94 118.72"/><polygon class="cls-1" points="273.4 118.67 273.59 118.02 273.35 118.38 273.4 118.67"/><path class="cls-1" d="M619.85,427.14l-.17.16A.87.87,0,0,0,619.85,427.14Z" transform="translate(-377.81 -308.52)"/><path class="cls-1" d="M620.68,427.43l.11-.32C620.7,427.28,620.65,427.4,620.68,427.43Z" transform="translate(-377.81 -308.52)"/><path class="cls-1" d="M638.55,423.8c0-.66.08-1.66-.1-.92l-.15.73C638.45,423.52,638.52,423.62,638.55,423.8Z" transform="translate(-377.81 -308.52)"/><path class="cls-1" d="M628.67,425.61c0,.07,0,.15,0,.23l.31-.65Z" transform="translate(-377.81 -308.52)"/><path class="cls-1" d="M627.71,428.53l-.1-.53A2,2,0,0,0,627.71,428.53Z" transform="translate(-377.81 -308.52)"/><path class="cls-1" d="M615,426.6l-.34.7C614.91,427.35,614.92,427,615,426.6Z" transform="translate(-377.81 -308.52)"/><path class="cls-1" d="M645.87,426c-.07-.32-.16-.47-.25-.53C645.68,426,645.66,426.62,645.87,426Z" transform="translate(-377.81 -308.52)"/><path class="cls-1" d="M622.33,419.65a.83.83,0,0,0-.22.4A.66.66,0,0,0,622.33,419.65Z" transform="translate(-377.81 -308.52)"/><path class="cls-1" d="M645.2,425.4a1,1,0,0,0,0,.18c.14-.09.27-.15.39-.07C645.57,425.17,645.48,424.94,645.2,425.4Z" transform="translate(-377.81 -308.52)"/><path class="cls-1" d="M598.51,421.54a.36.36,0,0,0,0-.1C598.47,421.54,598.48,421.55,598.51,421.54Z" transform="translate(-377.81 -308.52)"/><path class="cls-1" d="M595.39,413a.41.41,0,0,1,.22,0C595.58,413,595.52,413,595.39,413Z" transform="translate(-377.81 -308.52)"/><path class="cls-1" d="M649.22,426.33c.12,0,0-.07,0,0Z" transform="translate(-377.81 -308.52)"/><path class="cls-1" d="M649,429.31a2.08,2.08,0,0,0-.14.34A1.84,1.84,0,0,1,649,429.31Z" transform="translate(-377.81 -308.52)"/><path class="cls-1" d="M642.88,429.56h0C642.86,429.7,642.86,429.67,642.88,429.56Z" transform="translate(-377.81 -308.52)"/><path class="cls-1" d="M649.3,426.7a1.23,1.23,0,0,0-.08-.25A.69.69,0,0,0,649.3,426.7Z" transform="translate(-377.81 -308.52)"/><path class="cls-1" d="M649.37,426.36l.07.09C649.49,426.34,649.5,426.26,649.37,426.36Z" transform="translate(-377.81 -308.52)"/><path class="cls-1" d="M649.06,426.33a.3.3,0,0,1,.16.12.24.24,0,0,1,0-.12Z" transform="translate(-377.81 -308.52)"/><path class="cls-1" d="M608,422v-.08C607.78,422.15,607.84,422.12,608,422Z" transform="translate(-377.81 -308.52)"/><path class="cls-1" d="M633.6,430.42s0,0,0,0v0Z" transform="translate(-377.81 -308.52)"/><path class="cls-1" d="M633.06,430.84c.42-.84.48-.7.56-.48l.45-2.1Z" transform="translate(-377.81 -308.52)"/><path class="cls-1" d="M617.77,426.78l.09.72c-.63,1-.76.53-.76,1.51.67-2.23,1.13.07,1.8-2.16l.05.53s-.09.09-.13.05c0,1.17.72-1.54,1.08-1.09a.8.8,0,0,1,0,.8l.51-.45c.09.07-.05.45-.14.38l.59,0,0,.06a10.45,10.45,0,0,1,.65-1c0,.36-.13.22-.18.51l.46-.46c-.05.62-.45,1.11-.64,1-.35,2.31.41-.5.64,1l-.36.2c-.18,1.32.17.93.26,1.81,0-.44-.07-2.18.42-2.64,0,.19.14.31.44-.09-.23.79,0,.65.23.66l-.32,1.05c.32-.24.45-.78.72-1.21.23.17,0,1-.08,1.71.36.29.09-1.39.63-1.45.23.5.59.14,1.18-.37.14.43-.22.63-.22.95l.45-.78s-.05.29-.09.42c.27-.27.31-1,.68-1.25.41-1.14.09,1.86.82.64a7,7,0,0,1-.32,1,6.72,6.72,0,0,0,1.32-1.56l.13.78a4.36,4.36,0,0,1,1.06-2.39c0-.41,0-.77,0-.94l.6-.44a3,3,0,0,1-.34,1l.15-.23a3.25,3.25,0,0,1-.49,1.57c0-.22,0-.46,0-.69a10.5,10.5,0,0,0-.75,1.91.65.65,0,0,1,.22-.24,1.66,1.66,0,0,0-.15.42c0,.12.09-.1.24-.35l-.23,1.2.15-.46.37.9c.75-1.06,1.6-2.7,2.39-3a13.75,13.75,0,0,0-.73,2.41c.13-1.13-.64.32-.92,0,.15.17,0,.64-.12.8l.88-.81c-.25.83,0,.66,0,1.05.35-1.68.77-1,1.16-1.41-.15.56-.37,1.11-.63.89,0,1.34,1-1.81,1-.67-.07,0-.09-.1-.2.17.31-.44.62.07.39.52h-.08c.43.34,1.48.44,2-.94-.05.18-.55,1.67-.66,1.94l2.21-4.47c-.42,1.19-.94,4.14-1.54,4.7.07.21.16.45.52.09a6.48,6.48,0,0,1,.44-1.87,11,11,0,0,0,0,2c0-.29.63-2.15.8-2-.11.27-.52,1.87-.64,2l1-1.72a7.09,7.09,0,0,0-.51,2.12c0-.38.39.15.57,0l-.08-.49c.45.43,1.26-2.46,1.75-2.21-.17.36-.82,2.31-.62,2.62.39-.92,1.83-4.42,2.49-5l-.06.57.53-.52c-.62,1.37-2.09,4.2-2.76,5.28.08.48-.12.65.19.69a.75.75,0,0,1-.48.73l.6.52c.28-1.12.84-1,1.07-1.9l-1.07.94c.28-1.11,1.32-3,1.75-2.69a16.6,16.6,0,0,1-.74,2.32c.17-.36.67-.6.64-.32l-.38.54c.16.49.86-1.35.89-.2.09.1-.06,1.52.14.87a44.77,44.77,0,0,1,1.61-6.16,11.52,11.52,0,0,1,.21,2c-.09,1-.94,2.29-1,3.18a3,3,0,0,1,.38-.75c0,.29-.31.92,0,.86.36-1.11.5.24.39-.92.34-.25.2.31.51.34a6.83,6.83,0,0,1,1.29-2.65,4.12,4.12,0,0,0-.16.85c.48.24.62.83,1.1,1a2.38,2.38,0,0,1-.12,1.13c.12-.18.29-.54.44-.53,0,1.05-.37.06-.47,1.29.2-.65.63-.79.95-1.15.21-1-.43-.32-.75,0a6.74,6.74,0,0,1,1.82-3.27c.49-.23-.07,1,0,.77.68.45,1.3-2.26,1.65-1.08a11.23,11.23,0,0,1-.59,2.43c-.42.24-.35-.71-.58-.73l.16.49c-.18.27-.46.44-.51.15,0,.85,1.22.5,1.6,1.39a1.69,1.69,0,0,0,.46-.91l-.22.07c0-.76.61-.9.47-1.29.38-.44.87-1.16,1.11-.67l-.21,1c.07-.3-.06-.67-.24-.39.26-.41.16,1.52.67.23l0-.76c.38-.45,1-1.45,1.19-1,.13-1-.1.09,0-1.14-.2,1.51-.76-.27-.87,1.35.14-1.42-.23-.68-.21-1.92-.08.33-.07.67-.28.43a2.51,2.51,0,0,1-.13.28v0s0,.05,0,0a2,2,0,0,1,0,.55c-.34.73-.74.6-1,1-.11-.2.16-.37.18-.75l-.37.54c.18-.75-.07-1.34.41-1.68l-.32-.12c-.07-.47-.29-.71-.53-.44-.11-.2-.61.72-.32.17l-.63.33,0-.19c-.47-.23-1.36.95-1.56-.55-.22.15-.46.33-.68,0l.12-.66c-.27.17-.46-.82-.74-.17.24-1.79-.94-.67-1.23-1.08l-.25.83c-.25-.12-.56,0-1,.3l-.18.74c-.45.53-.57-.72-1-.77.11-.28.2-.17.24,0-.06-1.81-1.46.91-1.59-.45-.2.24-.26.12-.29-.09,0,0,0,0,0,0l0,0c0-.14,0-.3-.06-.44a2.29,2.29,0,0,0,0,.44.73.73,0,0,0-.45.18l.17-.81,0,0c0-.33-.22.34-.31,1a1.92,1.92,0,0,0-.32.43c.25-1.31-.48.33-.24-1.08-.28.64-.83.31-1.3,1.69,0-.18,0-.28.11-.27-.11-.21-.21-.41-.46-.05l.22-1-.72,1.26a2.65,2.65,0,0,1,.41-1.77c-.82,1.06-.52.34-1.27,1.41l.21-.65c-.15,0-.64.79-.57.22,0-1.33-1.58-.63-2.1-2-.38,2-.15-1-.61.5a2.28,2.28,0,0,1,.29-1.11c-.56.32-.44-.91-1.1.26.08-.47.28-.64.32-.92-.07.09-.25.36-.22.07s.17-.36.3-.54c-.47-.05-.91,1.34-1.32,2.64,0-.68-.18-.63-.59.19,0-.45,0-.94.36-1-.13-.1-.76-.9-1.07.15,0-.28-.2-.14-.27,0-.33-.16-.33-.26-.7-.26l0,.2c-.49,1.23-.36.2-.68.28l.05-.13c-.37-1.1-.4.36-.72-.86l-.19.8c-.54,1.68-.26-1.16-.81-.61v.48c-.36.53.11-2.46,0-2.73s.14-.22.23-.31c-.23-1.15-.36,1-.81,1.14.08-.57.49-1.39.26-1.57,0-.49-1.27,1.6-1.31.43A2,2,0,0,1,623,421c-.32.07-.28-1.84-.92-.55a1.36,1.36,0,0,1,.05-.36c-.31.3-.85.39-1.18,1.09.58-2.78-1.68,1-1-1.56l-.68,0,.09-.26c-.36-.28-.68.28-1,.85a1,1,0,0,1,.14-.55c-.46-.67-.55-.58-1.41.53l.17-.83c-.27.44-.51-1.53-1.37-.74a1.25,1.25,0,0,1,.17-.35c-.93.77-1-2.71-2,.2l-.64.61c.5.39-.45,1.27-.35,1.83-.27.12-.33-1.06,0-1.13v.16c.53-1.53-.55-.75-.25-1.8-1.14-.23-2-1.4-3-1.74l-.2,1.24-.35-.17c0-.31.13-1,.38-.86,0-.72-.6.45-.68.72-.38-.63.58-1.36.43-1.43l-.24,0,0,.15c-.31.45-.47,1-.77.83-.13-.3.1-.78,0-.84s0-.14-.12-.07l-.43-.23-.07,1c-.33.41-.42-.17-.5,1,.13-1.76-1.57-1.06-1.62-1.63-.47.62-.75.54-1.08.36,0,.22-.2,1.31-.47,1.1.69-2.19-.3-1.11-.13-2.77-.06,1.12-.93,0-1,1.63-.2-.24.2-.83.14-1.41-.82.7-1.18-.9-2-.8a3.16,3.16,0,0,1-.34,1.16l0-1.56c-.18.11-.56,1.66-.57.57,0,.26-.06.64-.19.71-1.11-1.8-3.27.42-4.12-2.62.07.62-.08.64-.24.63.07.16-.18.72-.25,1.12l-.37-1.25c-.37,1.07-.68-.09-1,.95l.24-.14c-.55,1.18-.29,2.85-.71,4.44.63-1.34.27,2.28,1.23.37,0,.35-.21.49-.24.88.28-.66.46-.76.66-.39l-.07.16c.8,0,1,.77,1.7,1.43l.13-.81c.16.15.14.41.17.63.51-1.14-.49-.2,0-1.47-.15,1.67,1.29.35,1,2.22.28.08.15-.94.43-.85l0,.51.23-.62c.16.15.09.79,0,1.21,0-.06-.15.08-.21.11.09.64.72,0,.76.18l-.19-.37c.88-.27,1.65.61,2.65-.19l0-.39c.75-.53.35.53,1.05.38l0,.08c.22-.34.44-.48.59-.4-.27.4.08.93-.25,1.35.81-.57.45-.5,1.22-1.77l-.07.64c.29-.52.38-.81.73-.89-.39.46,0,1-.52,1.61.3,1.52,1.33-1.09,1.11,1,.75-1.62-.32-1.1-.05-1.41,0-.6.58-1.21.74-1s-.22,2.27.31,2.37c-.05,0-.09.11-.14.09.08.48.54-.48.59.28.42-1,.3.15.69-1.15l-.56.17c.36-.27,1-1.73,1.28-.87a2.86,2.86,0,0,1-.48.74c0,.42.33-.19.35.24-.39,1.3-.66.13-1.22,1.05,0,.59.81-.8.28.58.7-1.75.45.37,1.18-.92l-.23.78c.08-.11.3-.45.4-.4l-.46,1c.52-.79.34.91.74.51-.58-.13.13-1,0-1.62,1-.85-.16,2.17.74,2-.14.08-.27-.58,0-.9a1.94,1.94,0,0,1,.21,1c.57,0,.14-.82.49-1.24-.08,1,.37-.32.69-.56l-.22.79c.46.68.61-1.61,1-.85l-.53,1,.36-.2-.31.89c.5-.59.54-.39.77-.05.09-.58.44-1.44.72-1.39,0,.52-.32.73.09.72-.22.47-.49,1.07-.45.29-.09.26-.22.48-.31.73.05.6.46.26.6.29a.26.26,0,0,1-.1-.22l.85-1a1.35,1.35,0,0,1-.26.76c.13-.05.31-.4.49-.42a3.87,3.87,0,0,1-.71,1.55l.72-.57c0,.29,0,.84-.08,1.06.18.46,1.05-1.05,1.29-.45a.68.68,0,0,1,.24-.29c.32.24.41,1.13,1.09.36l-.09,1.22c.41-.17.09-1.55.77-1.83.49-.26-.14,1-.09,1.39.36-.53,1-1.62,1.13-.57C618,426.92,617.91,426.72,617.77,426.78Zm4.26.65c-.13.15-.43.61-.36.13C622,426.67,622,427.13,622,427.43Zm6.81-.12c-.13.24-.19.09-.21-.24C628.73,427,628.81,427.08,628.84,427.31Zm19-.65,0,0C647.74,426.34,647.77,426.48,647.85,426.66Zm.28.45a.79.79,0,0,0,.1-.33c-.08.19-.16.18-.24.1C648,427.1,648,427.26,648.13,427.11Zm-39.88-10.84v.23C608,416.68,608.14,416.49,608.25,416.27Z" transform="translate(-377.81 -308.52)"/><path class="cls-1" d="M627.82,428.19a3.82,3.82,0,0,1,.09-.44A.72.72,0,0,0,627.82,428.19Z" transform="translate(-377.81 -308.52)"/><path class="cls-1" d="M615.09,426.48v0l-.05.14Z" transform="translate(-377.81 -308.52)"/><path class="cls-1" d="M640.53,432.29a1.17,1.17,0,0,1,0-.46C640.43,432,640.42,432.2,640.53,432.29Z" transform="translate(-377.81 -308.52)"/><path class="cls-1" d="M650.45,426.27l-.3.15c.13,0,.12.17.15.32C650.34,426.55,650.37,426.27,650.45,426.27Z" transform="translate(-377.81 -308.52)"/><path class="cls-1" d="M651.19,431.77c.06-.09.08,0,.14-.08l.09-.38A.32.32,0,0,0,651.19,431.77Z" transform="translate(-377.81 -308.52)"/><path class="cls-1" d="M650,429c-.16.67,0,.48.25.4h0C650.48,428.46,650.22,428.72,650,429Z" transform="translate(-377.81 -308.52)"/><path class="cls-1" d="M650.25,429.38a.14.14,0,0,1,.16,0C650.53,429,650.37,429.31,650.25,429.38Z" transform="translate(-377.81 -308.52)"/><path class="cls-1" d="M648.71,426.79c0,.19.28-.85.26-.56C649.28,425.4,648.16,427.12,648.71,426.79Z" transform="translate(-377.81 -308.52)"/><polygon class="cls-1" points="271.69 122.71 271.85 121.86 271.58 122.51 271.69 122.71"/><path class="cls-1" d="M648.35,430.28l.2.3a.52.52,0,0,1,.15-.27C648.54,430.24,648.41,430,648.35,430.28Z" transform="translate(-377.81 -308.52)"/><path class="cls-1" d="M648.7,430.31a.18.18,0,0,0,.25-.08A.37.37,0,0,0,648.7,430.31Z" transform="translate(-377.81 -308.52)"/><polygon class="cls-1" points="271.26 122.86 271.23 122.67 271.06 122.56 271.26 122.86"/><path class="cls-1" d="M645.53,429.34l-.35.16c-.11.27-.08.47.06.39S645.5,429.63,645.53,429.34Z" transform="translate(-377.81 -308.52)"/><path class="cls-1" d="M645.79,431.85a2.81,2.81,0,0,1,.05-.67l-.29,1Z" transform="translate(-377.81 -308.52)"/><path class="cls-1" d="M644.88,431.86c-.11.27-.65.7-.26.73C644.73,432.32,645.08,432.16,644.88,431.86Z" transform="translate(-377.81 -308.52)"/><polygon class="cls-1" points="263.05 120.83 263.13 120.83 263.58 119.15 263.05 120.83"/><path class="cls-1" d="M635.87,432.29c.23.5.38-1,.55-.43.19-.37-.14-.48,0-.8C636.13,431.42,636.09,431.16,635.87,432.29Z" transform="translate(-377.81 -308.52)"/><path class="cls-1" d="M636.46,431.06a1.64,1.64,0,0,0,.18-.22A1.34,1.34,0,0,0,636.46,431.06Z" transform="translate(-377.81 -308.52)"/><polygon class="cls-1" points="216.97 103.41 216.83 103 216.84 103.61 216.97 103.41"/><path class="cls-1" d="M594.05,413.09l.21-1.1-.37.95C594,412.9,594.07,412.83,594.05,413.09Z" transform="translate(-377.81 -308.52)"/><path class="cls-1" d="M622,429.76l.09-.25c0-.29,0-.33-.09-.4Z" transform="translate(-377.81 -308.52)"/><polygon class="cls-1" points="241.46 119.59 241.51 119.62 241.69 118.63 241.46 119.59"/><path class="cls-1" d="M616.42,428.64c.09.06.27-.12.36-.05C616.51,428.71,616.73,427.42,616.42,428.64Z" transform="translate(-377.81 -308.52)"/><path class="cls-1" d="M656.74,365.66c.12,0-.09-.65-.1-.78C656.51,365.08,656.79,365.85,656.74,365.66Z" transform="translate(-377.81 -308.52)"/><polygon class="cls-1" points="277.71 59.11 277.67 58.82 277.61 59.58 277.71 59.11"/><path class="cls-1" d="M654,368c.43,1.15.5-.33.87,0l.11.26-.12-1C654.6,367.53,654.33,368.26,654,368Z" transform="translate(-377.81 -308.52)"/><path class="cls-1" d="M652.6,365.61c.16.45-.08.44.22.1a.41.41,0,0,1-.06-.11A.2.2,0,0,1,652.6,365.61Z" transform="translate(-377.81 -308.52)"/><path class="cls-1" d="M652.76,365.6c.15-.07-.2-.36,0,0Z" transform="translate(-377.81 -308.52)"/><path class="cls-1" d="M652.09,366l.11-.46c-.11-.26-.31-.28-.29-.49C651.75,365.36,651.86,365.62,652.09,366Z" transform="translate(-377.81 -308.52)"/><path class="cls-1" d="M652.1,367l.07-.2C652.12,366.65,652.08,366.62,652.1,367Z" transform="translate(-377.81 -308.52)"/><path class="cls-1" d="M652.31,366.33l-.14.43c.07.18.17.57.07-.16C652.31,367,652.27,366.61,652.31,366.33Z" transform="translate(-377.81 -308.52)"/><path class="cls-1" d="M652.48,366.48c.18.23.37.36.26.82C653.1,367,652.84,366.22,652.48,366.48Z" transform="translate(-377.81 -308.52)"/><path class="cls-1" d="M654.24,369.24l.24.31,0-.43C654.5,369.33,654.14,368.87,654.24,369.24Z" transform="translate(-377.81 -308.52)"/><path class="cls-1" d="M650.64,365.74c.05.26.24.66.33,1l.08-.33A1.45,1.45,0,0,1,650.64,365.74Z" transform="translate(-377.81 -308.52)"/><path class="cls-1" d="M651,366.72l-.13.49C651.06,367.21,651.05,367,651,366.72Z" transform="translate(-377.81 -308.52)"/><polygon class="cls-1" points="274.57 59.76 274.73 58.76 274.5 59.79 274.57 59.76"/><polygon class="cls-1" points="271.95 57.4 271.94 56.78 271.92 57.72 271.95 57.4"/><path class="cls-1" d="M649.2,366.17c0-.51-.33-.79-.3-1.11-.14.12-.17.57-.21,1C648.77,365.79,648.92,365.81,649.2,366.17Z" transform="translate(-377.81 -308.52)"/><path class="cls-1" d="M648.62,366.63a3.67,3.67,0,0,0,.07-.6A2,2,0,0,0,648.62,366.63Z" transform="translate(-377.81 -308.52)"/><path class="cls-1" d="M650.42,367.18a1.77,1.77,0,0,0-.35-.68l.26.69Z" transform="translate(-377.81 -308.52)"/><path class="cls-1" d="M650.34,367.21v0h0Z" transform="translate(-377.81 -308.52)"/><path class="cls-1" d="M650.45,367.18h0C650.45,367.25,650.46,367.27,650.45,367.18Z" transform="translate(-377.81 -308.52)"/><path class="cls-1" d="M651.62,367.79a1.78,1.78,0,0,0,.21,1.47A8.23,8.23,0,0,1,651.62,367.79Z" transform="translate(-377.81 -308.52)"/><path class="cls-1" d="M650.77,368l.29.1a2,2,0,0,1-.14-.66Z" transform="translate(-377.81 -308.52)"/><polygon class="cls-1" points="272.9 59.77 272.96 59.51 272.86 59.48 272.9 59.77"/><path class="cls-1" d="M649.2,367.19c0,.34-.14.39-.26.47a.66.66,0,0,0,.48.12C649.38,367.55,649.35,367.13,649.2,367.19Z" transform="translate(-377.81 -308.52)"/><path class="cls-1" d="M649.77,367.26s0,0,0,.05S649.8,367.38,649.77,367.26Z" transform="translate(-377.81 -308.52)"/><path class="cls-1" d="M647.66,368a.61.61,0,0,0,.05.12l0-.12Z" transform="translate(-377.81 -308.52)"/><path class="cls-1" d="M649.47,367.9c.14.11.16-.07.17-.31a.49.49,0,0,1-.22.19C649.43,367.88,649.45,368,649.47,367.9Z" transform="translate(-377.81 -308.52)"/><path class="cls-1" d="M648.34,367.05c.09.13.19.24.28.35C648.51,367.18,648.32,366.86,648.34,367.05Z" transform="translate(-377.81 -308.52)"/><path class="cls-1" d="M649.67,367.12s0,0,0,0S649.63,367,649.67,367.12Z" transform="translate(-377.81 -308.52)"/><path class="cls-1" d="M649.67,367.12a2.23,2.23,0,0,0,0,.47.81.81,0,0,0,.12-.28A1.72,1.72,0,0,1,649.67,367.12Z" transform="translate(-377.81 -308.52)"/><path class="cls-1" d="M648.37,372.63c-.14-.66,0-1.34.4-.69a12.1,12.1,0,0,0-1.06-3.85,1.66,1.66,0,0,1,0,1c.17.34.74.71.68,1.36-.24.41-.32-.17-.56-.48.33.79-.12,1.29.25,2.48l.17-.49C648.28,372.16,648.26,372.48,648.37,372.63Z" transform="translate(-377.81 -308.52)"/><path class="cls-1" d="M648.19,368.05l.08-.11c-.15-.08-.29-.33-.56-.81a1.88,1.88,0,0,0,0,.84l.52,0Z" transform="translate(-377.81 -308.52)"/><path class="cls-1" d="M648.71,367.83a4.9,4.9,0,0,0,.27,1.84c.28-.12.06-.64.16-1-.43.29,0-.43-.41-.76a.61.61,0,0,1,.21-.25,1.74,1.74,0,0,1-.32-.26l0,0h0v0c0,.08.06.13,0,.09h0c0,.1,0,.19,0,.28-.17-.12-.07-.18,0-.28a.36.36,0,0,1,0-.1h0l-.37.5C648.39,368,648.51,368,648.71,367.83Z" transform="translate(-377.81 -308.52)"/><path class="cls-1" d="M652,370.86a1.66,1.66,0,0,1-.06-.16C651.88,370.79,651.89,370.86,652,370.86Z" transform="translate(-377.81 -308.52)"/><path class="cls-1" d="M651.65,370.47c0-.1,0-.4.1-.35s.08.34.14.58a.93.93,0,0,0-.18-.87v.1a3.4,3.4,0,0,1-.7-1.14A14.23,14.23,0,0,0,651.65,370.47Z" transform="translate(-377.81 -308.52)"/><path class="cls-1" d="M650.21,369.34l-.31.45.35.57-.1-.37C650.41,370.08,650.25,369.63,650.21,369.34Z" transform="translate(-377.81 -308.52)"/><polygon class="cls-1" points="269.72 59.1 269.58 58.33 269.62 59.45 269.72 59.1"/><polygon class="cls-1" points="269.23 59.31 269.09 58.65 269.05 59.08 269.23 59.31"/><path class="cls-1" d="M620.22,383l-.07.21A.58.58,0,0,0,620.22,383Z" transform="translate(-377.81 -308.52)"/><path class="cls-1" d="M621.07,382.83l-.06-.33C621,382.69,621,382.83,621.07,382.83Z" transform="translate(-377.81 -308.52)"/><path class="cls-1" d="M634.52,371c-.31-.58-.73-1.49-.53-.75l.22.71C634.3,370.75,634.41,370.81,634.52,371Z" transform="translate(-377.81 -308.52)"/><path class="cls-1" d="M627,377.34a2,2,0,0,0,.1.21q0-.39-.06-.72C627,377,627,377.16,627,377.34Z" transform="translate(-377.81 -308.52)"/><path class="cls-1" d="M627.59,380.36l-.33-.41A1.61,1.61,0,0,0,627.59,380.36Z" transform="translate(-377.81 -308.52)"/><path class="cls-1" d="M615.85,384.86l0,.77C616.1,385.57,615.92,385.23,615.85,384.86Z" transform="translate(-377.81 -308.52)"/><path class="cls-1" d="M641.88,369.37c-.22-.25-.36-.34-.47-.35C641.68,369.39,642,370,641.88,369.37Z" transform="translate(-377.81 -308.52)"/><path class="cls-1" d="M618.69,375.24a1.07,1.07,0,0,0,0,.47A.76.76,0,0,0,618.69,375.24Z" transform="translate(-377.81 -308.52)"/><path class="cls-1" d="M641,369.13c0,.06.08.09.12.15.08-.15.16-.27.3-.26C641.2,368.74,641,368.59,641,369.13Z" transform="translate(-377.81 -308.52)"/><path class="cls-1" d="M599.16,388.27a.55.55,0,0,1-.06-.08C599.12,388.29,599.13,388.29,599.16,388.27Z" transform="translate(-377.81 -308.52)"/><path class="cls-1" d="M592.57,382.15a.37.37,0,0,1,.18-.11S592.65,382,592.57,382.15Z" transform="translate(-377.81 -308.52)"/><path class="cls-1" d="M644.91,368c.1-.07,0-.08,0,0Z" transform="translate(-377.81 -308.52)"/><path class="cls-1" d="M646.13,370.75a1,1,0,0,0,0,.36A1.46,1.46,0,0,1,646.13,370.75Z" transform="translate(-377.81 -308.52)"/><path class="cls-1" d="M641,373.88h0C641.06,374,641.05,374,641,373.88Z" transform="translate(-377.81 -308.52)"/><path class="cls-1" d="M645.15,368.31a.79.79,0,0,0-.19-.18A1.13,1.13,0,0,0,645.15,368.31Z" transform="translate(-377.81 -308.52)"/><path class="cls-1" d="M645.05,368a.27.27,0,0,0,.11,0C645.14,367.9,645.11,367.82,645.05,368Z" transform="translate(-377.81 -308.52)"/><path class="cls-1" d="M644.77,368.1a.19.19,0,0,1,.19,0,.25.25,0,0,1-.05-.11Z" transform="translate(-377.81 -308.52)"/><path class="cls-1" d="M607.55,384.19l0-.06C607.48,384.45,607.51,384.39,607.55,384.19Z" transform="translate(-377.81 -308.52)"/><path class="cls-1" d="M633.52,379.13a.06.06,0,0,0,0,0l0,0Z" transform="translate(-377.81 -308.52)"/><path class="cls-1" d="M633.27,379.77c-.06-.94.06-.86.24-.7l-.64-2.05Z" transform="translate(-377.81 -308.52)"/><path class="cls-1" d="M618.27,383.68l.43.58c-.07,1.15-.4.84.08,1.69-.51-2.27,1-.49.5-2.75l.29.43c-.05,0,0,.12-.09.11.62,1-.13-1.69.4-1.48a.81.81,0,0,1,.34.73l.22-.64c.11,0,.18.41.07.39l.49-.31v.07a10.93,10.93,0,0,1,.06-1.22c.21.3,0,.26.09.54l.16-.62c.27.55.16,1.18-.06,1.15.82,2.19.1-.63,1,.54l-.21.36c.49,1.24.59.72,1.1,1.44-.17-.4-1.12-1.86-.93-2.5.13.15.27.2.33-.3.2.81.32.57.52.47l.24,1.07a4.63,4.63,0,0,0,0-1.41c.28,0,.53.85.76,1.53.45.07-.6-1.25-.17-1.57.44.32.57-.17.82-.9.33.31.12.66.28.94v-.9c.06,0,.11.27.13.41.1-.37-.24-1.07,0-1.43-.21-1.19,1,1.58,1,.16a8.71,8.71,0,0,1,.24,1.07,7,7,0,0,0,.36-2l.5.62a4.37,4.37,0,0,1-.27-2.61c-.18-.37-.34-.69-.43-.83l.3-.68a3,3,0,0,1,.17,1c0-.1,0-.19,0-.28a3.39,3.39,0,0,1,.35,1.62l-.31-.62a11.16,11.16,0,0,0,.29,2,.58.58,0,0,1,.08-.32,1.55,1.55,0,0,0,.07.44c0,.11,0-.13,0-.42l.39,1.16-.09-.48.75.61c.12-1.3,0-3.14.57-3.79a13.57,13.57,0,0,0,.55,2.47c-.44-1.05-.38.58-.77.44.2.07.28.58.28.76l.35-1.14c.2.85.28.6.53.91-.53-1.64.17-1.22.29-1.79.15.56.23,1.15-.1,1.08.63,1.18,0-2.06.53-1.07-.07,0-.13,0-.09.25,0-.54.56-.25.58.26l-.07,0c.53.08,1.47-.34,1.2-1.77,0,.18.35,1.72.39,2l-.3-5c.22,1.23,1.21,4.06,1,4.84.15.15.34.32.48-.17a6.58,6.58,0,0,1-.54-1.85,10.13,10.13,0,0,0,1,1.74c-.18-.23-.51-2.17-.31-2.15,0,.29.47,1.88.45,2.09v-2a7.23,7.23,0,0,0,.59,2.1c-.13-.36.41-.07.49-.28l-.3-.39c.58.16-.13-2.76.41-2.78a7.18,7.18,0,0,0,.74,2.59c-.11-1-.58-4.75-.31-5.59l.22.52.2-.71c.13,1.5.26,4.68.21,5.95.3.38.21.63.49.51a.74.74,0,0,1,0,.87l.76.17c-.3-1.12.25-1.25,0-2.18l-.46,1.34c-.3-1.11-.34-3.28.18-3.2a15.69,15.69,0,0,1,.5,2.39c0-.4.27-.85.38-.59l-.05.65c.37.36.07-1.59.65-.6.13,0,.68,1.36.54.7a44.27,44.27,0,0,1-1.59-6.17,11.66,11.66,0,0,1,1.16,1.68c.42,1,.3,2.45.66,3.28a3.75,3.75,0,0,1,0-.84c.18.23.18,1,.4.76-.23-1.15.54,0-.11-1,.17-.39.32.17.59.05a6.94,6.94,0,0,1-.17-2.95,4.61,4.61,0,0,0,.27.82c.53,0,.93.43,1.41.33a2.4,2.4,0,0,1,.44,1.05c0-.22,0-.62.13-.68.52.91-.29.23.21,1.36-.14-.66.15-1,.26-1.46-.31-1-.52-.08-.63.38a6.84,6.84,0,0,1,0-3.73c.31-.45.39.86.41.65.8.06,0-2.61.89-1.75a11.09,11.09,0,0,1,.66,2.42c-.24.41-.63-.45-.84-.36l.37.35c0,.33-.19.6-.37.37.4.76,1.28-.14,2,.46a1.78,1.78,0,0,0,0-1l-.15.17c-.34-.68.1-1.08-.21-1.36.12-.57.2-1.43.64-1.11l.31,1c-.08-.3-.37-.55-.39-.22,0-.49.85,1.26.69-.12l-.41-.65c.11-.57.15-1.73.53-1.48-.38-1,0,.13-.54-1,.54,1.42-.79.12-.11,1.59-.56-1.31-.53-.49-1.1-1.58.09.33.26.61,0,.51,0,.1,0,.23,0,.31l0,0a.05.05,0,0,1,0,0s0,.06,0,0a2,2,0,0,1,.26.48c.06.8-.35.88-.39,1.31-.19-.12,0-.4-.2-.74l-.06.65c-.2-.75-.7-1.15-.45-1.67l-.33,0c-.29-.37-.59-.48-.67-.12-.19-.13-.18.91-.19.3l-.39.58,0-.18c-.51,0-.71,1.48-1.6.27-.12.23-.24.5-.57.35l-.21-.63c-.16.28-.79-.49-.72.2-.65-1.68-1.13-.13-1.58-.34l.19.84c-.27,0-.46.32-.7.74l.2.74c-.12.68-.83-.36-1.25-.18,0-.29.09-.24.21-.09-.93-1.56-.81,1.49-1.58.38-.05.3-.16.23-.29.06a.06.06,0,0,0,0-.05h-.05a3.32,3.32,0,0,0-.26-.36,1.8,1.8,0,0,0,.24.36.72.72,0,0,0-.29.39l-.26-.79,0,0c-.21-.26,0,.41.2,1a2,2,0,0,0-.06.53c-.42-1.27-.25.52-.73-.82.07.69-.56.67-.29,2.1,0-.18-.11-.26,0-.29-.19-.12-.38-.25-.42.18l-.31-1v1.45a2.65,2.65,0,0,1-.52-1.75c-.18,1.33-.28.55-.39,1.85l-.14-.67c-.14.06-.16,1-.38.48-.63-1.18-1.66.22-2.78-.75.64,1.91-.6-.77-.27.74a2.64,2.64,0,0,1-.3-1.11c-.31.56-.81-.57-.8.77-.16-.45-.07-.7-.18-1,0,.11,0,.43-.15.17a1,1,0,0,1,0-.62c-.42.19-.12,1.61.17,2.95-.38-.58-.47-.46-.41.45-.19-.42-.42-.84-.19-1.06-.17,0-1.09-.42-.84.65-.12-.26-.24,0-.25.11-.36,0-.41-.07-.72.11l.14.15c.17,1.32-.21.36-.45.58l0-.14c-.85-.77-.16.51-1-.4l.22.79c.36,1.74-.78-.88-1-.13l.24.42c0,.64-1.11-2.2-1.36-2.37-.08-.14,0-.26,0-.38-.75-.89.19,1.06-.13,1.39-.21-.54-.26-1.45-.54-1.49-.24-.43-.3,2-.91,1a2,2,0,0,1,.27,1.2c-.24.22-1.13-1.47-1,0a1.66,1.66,0,0,1-.13-.32c-.12.4-.53.75-.47,1.52-.86-2.71-1,1.65-1.58-.89l-.6.29,0-.27c-.45-.06-.44.58-.44,1.23a1.2,1.2,0,0,1-.15-.54c-.72-.37-.75-.25-.94,1.14l-.25-.82c0,.52-1.18-1.08-1.53,0a1.53,1.53,0,0,1,0-.38c-.42,1.12-2.13-1.91-1.64,1.15l-.26.85c.62.1.24,1.32.59,1.77-.18.23-.79-.77-.56-1l.08.14c-.28-1.59-.83-.39-1.07-1.46-1.09.34-2.37-.26-3.42-.08l.41,1.19-.38,0c-.16-.26-.35-.92-.08-.94-.31-.65-.3.69-.24.95-.62-.37-.15-1.47-.31-1.46l-.19.14.09.14c-.05.53.06,1.07-.26,1.08-.26-.2-.29-.73-.37-.75s-.06-.13-.13,0h-.48l.41.92c-.08.53-.43.06,0,1.09-.72-1.6-1.84-.19-2.16-.66-.11.76-.39.82-.75.82.13.18.44,1.25.11,1.19-.43-2.26-.78-.84-1.4-2.39.47,1-.79.47-.08,1.9-.3-.12-.22-.83-.54-1.31-.38,1-1.43-.25-2.09.22a3.47,3.47,0,0,1,.24,1.19l-.74-1.37c-.11.18.27,1.72-.24.77.1.24.25.59.17.71-1.77-1.08-2.64,1.88-4.74-.45.34.52.22.61.07.66.13.11.18.73.29,1.12l-.87-1c.15,1.13-.64.24-.44,1.3l.14-.23c0,1.3,1,2.67,1.38,4.28-.06-1.48,1.26,1.91,1.24-.23.18.3,0,.54.18.89,0-.71.07-.89.41-.64v.17c.71-.35,1.19.25,2.14.5l-.25-.78c.2.06.3.3.44.48-.09-1.25-.53.05-.66-1.31.63,1.55,1.28-.29,1.89,1.5.28-.06-.31-.89,0-.95l.2.48-.09-.66c.21.06.45.66.56,1.07,0,0-.1.15-.13.2.37.52.61-.36.74-.19l-.34-.24c.65-.65,1.73-.22,2.22-1.4l-.14-.36c.39-.83.55.3,1.08-.17V386c0-.4.16-.62.33-.62,0,.47.5.77.41,1.31.43-.89.16-.66.23-2.14l.24.6c0-.6-.06-.89.21-1.13-.12.59.43.9.31,1.67,1,1.19.63-1.6,1.41.3-.12-1.78-.79-.81-.71-1.22-.28-.52-.07-1.33.17-1.21s.88,2.1,1.39,1.94c-.05,0,0,.14-.07.14.3.39.23-.68.64,0-.11-1.06.33,0,0-1.34l-.4.42c.19-.41.07-2,.69-1.37a3.06,3.06,0,0,1-.06.87c.23.36.19-.32.42.05.28,1.33-.51.42-.55,1.5.27.52.31-1.09.51.38-.23-1.87.57.1.58-1.37l.17.79c0-.13.05-.53.16-.54l.06,1.07c.08-.94.74.63.89.09-.56.16-.36-.92-.74-1.44.45-1.23.91,2,1.61,1.4-.08.14-.52-.38-.44-.78a1.93,1.93,0,0,1,.65.77c.48-.29-.28-.79-.17-1.33.41.92.16-.46.31-.82l.2.8c.72.37-.25-1.71.44-1.22l0,1.17.21-.35.17.92c.14-.75.27-.59.63-.41-.2-.55-.31-1.47-.05-1.56.29.44.08.79.43.59,0,.52.09,1.17-.25.47,0,.27,0,.53.09.79.32.5.51,0,.65,0a.32.32,0,0,1-.2-.16l.28-1.24a1.43,1.43,0,0,1,.14.79c.08-.11.07-.5.22-.61a3.91,3.91,0,0,1,.13,1.7l.34-.85c.11.28.46.72.45,1,.38.32.39-1.43.89-1a.66.66,0,0,1,.06-.37c.39.06.9.78,1.11-.21l.52,1.11c.27-.35-.68-1.4-.24-2s.39,1,.61,1.25c0-.63.09-1.92.68-1C618.5,383.72,618.36,383.57,618.27,383.68Zm4-1.5c0,.18-.07.74-.25.28C621.85,381.52,622,381.94,622.23,382.18Zm5.73-3.44c0,.28-.12.17-.29-.11C627.72,378.55,627.82,378.56,628,378.74ZM643.88,369v0C643.63,368.73,643.72,368.84,643.88,369Zm.45.26a.79.79,0,0,0-.06-.34c0,.21-.06.24-.16.21C644.18,369.29,644.27,369.43,644.33,369.22Zm-39.24,9.84.12.19C605.1,379.52,605.1,379.3,605.09,379.06Z" transform="translate(-377.81 -308.52)"/><path class="cls-1" d="M627.52,380c0-.13-.09-.28-.14-.43A.71.71,0,0,0,627.52,380Z" transform="translate(-377.81 -308.52)"/><path class="cls-1" d="M615.84,384.72h0l0,.15Z" transform="translate(-377.81 -308.52)"/><path class="cls-1" d="M640.31,377.41a1.47,1.47,0,0,1-.25-.38C640.11,377.22,640.18,377.38,640.31,377.41Z" transform="translate(-377.81 -308.52)"/><path class="cls-1" d="M645.94,367.39l-.18.26c.1-.07.18.1.27.21C646,367.68,645.87,367.42,645.94,367.39Z" transform="translate(-377.81 -308.52)"/><path class="cls-1" d="M649.18,371.86c0-.1.07,0,.08-.13l-.1-.37A.31.31,0,0,0,649.18,371.86Z" transform="translate(-377.81 -308.52)"/><path class="cls-1" d="M646.8,370c.19.67.28.41.41.24,0,0,0,0,0,0C647,369.29,646.9,369.65,646.8,370Z" transform="translate(-377.81 -308.52)"/><path class="cls-1" d="M647.24,370.21s.1-.07.15,0C647.32,369.78,647.31,370.09,647.24,370.21Z" transform="translate(-377.81 -308.52)"/><path class="cls-1" d="M644.69,368.66c.12.16-.16-.88-.05-.61C644.52,367.17,644.37,369.22,644.69,368.66Z" transform="translate(-377.81 -308.52)"/><polygon class="cls-1" points="269.67 63.67 269.41 62.85 269.48 63.55 269.67 63.67"/><path class="cls-1" d="M646,371.9l.32.17a.5.5,0,0,1,0-.3C646.18,371.78,646,371.65,646,371.9Z" transform="translate(-377.81 -308.52)"/><path class="cls-1" d="M646.35,371.77a.18.18,0,0,0,.18-.19A.33.33,0,0,0,646.35,371.77Z" transform="translate(-377.81 -308.52)"/><polygon class="cls-1" points="269.37 64.01 269.25 63.85 269.05 63.84 269.37 64.01"/><path class="cls-1" d="M643.17,372.42l-.23.31c0,.29.16.45.24.31A1,1,0,0,0,643.17,372.42Z" transform="translate(-377.81 -308.52)"/><path class="cls-1" d="M644.59,374.5a2.71,2.71,0,0,1-.28-.61l.24,1Z" transform="translate(-377.81 -308.52)"/><path class="cls-1" d="M643.81,374.94c0,.29-.21.93.13.77C643.9,375.42,644.13,375.11,643.81,374.94Z" transform="translate(-377.81 -308.52)"/><polygon class="cls-1" points="261.37 66.15 261.44 66.12 261.02 64.43 261.37 66.15"/><path class="cls-1" d="M636.36,379.66c.43.32-.18-1.07.25-.64,0-.42-.35-.35-.35-.72C636.16,378.78,636,378.56,636.36,379.66Z" transform="translate(-377.81 -308.52)"/><path class="cls-1" d="M636.26,378.3a1.55,1.55,0,0,0,0-.28A1.16,1.16,0,0,0,636.26,378.3Z" transform="translate(-377.81 -308.52)"/><polygon class="cls-1" points="213.74 72.9 213.44 72.6 213.71 73.14 213.74 72.9"/><path class="cls-1" d="M591.43,382.79l-.31-1.07.11,1C591.26,382.67,591.34,382.55,591.43,382.79Z" transform="translate(-377.81 -308.52)"/><path class="cls-1" d="M623.36,384.21l-.05-.27c-.1-.27-.15-.28-.27-.3Z" transform="translate(-377.81 -308.52)"/><polygon class="cls-1" points="242.39 75.59 242.45 75.6 242.12 74.64 242.39 75.59"/><path class="cls-1" d="M618,386c.11,0,.18-.23.29-.21C618.13,386,617.7,384.75,618,386Z" transform="translate(-377.81 -308.52)"/><path class="cls-2" d="M804.56,833.69c-8.13,14.17-15.23,17.56-28.45,26.43a70.83,70.83,0,0,0-8.6,7.16c-10.33,9.7-52.33,22-79.24,22.66,0,0-29.29,2.51-35.54,2-35.08-2.73-38.89-1.52-77.21-20.52-28.85-14.29-53.21-36.16-71.54-62.63-6.56-9.46-12.78-19.5-18.88-29.8q-11.31-19.08-23.8-37.43c-3-4.35-5.57-8.25-7-10.7q-6.27-10.61-12.21-21.45t-11.44-21.93c-46.23-89-74.88-192.69-31.16-286.64,8.42-20.5,32.19-40.77,38.13-46.15,16.68-15.09,32.75-19.27,62-24.14,25.12-4.18,42.59,2.52,49.62,27.26a33.67,33.67,0,0,1,1,5,408.63,408.63,0,0,0,7.51,42.91c.37,1.53.74,3.05,1.12,4.57a99.6,99.6,0,0,0,7.68,21c13.22,26,.48,58.29-26.44,67.57a55.79,55.79,0,0,1-8,2.16c-37.05,5.55-39.46,53.78-28.52,80.67q.93,3.2,2,6.36c4.18,12.67,8.16,24.65,14.47,36.92,3.37,6.54,8.47,13.54,12.25,19.93,3,5.08,8.93,14.36,12.15,19.47,2.37,3.76,23,34.28,35.48,52.5a181.12,181.12,0,0,0,18.87,23.37c1.37,1.42,2.76,2.81,4.22,4.23,24.67,27.34,63.24,15.28,84.49-9,1.53-1.58,3.09-3.14,4.66-4.67a85.08,85.08,0,0,1,15.09-12.06c12-6,23.5-3.62,33.86,2.56a82.4,82.4,0,0,1,14.64,11.49c19.36,23.85,52.78,33.77,60.27,63.91,2.12,12-6.18,27.72-10.65,35.69Z" transform="translate(-377.81 -308.52)"/></svg>